<?xml version="1.0" encoding="UTF-8"?>
<svg id="Layer_1" data-name="Layer 1" xmlns="http://www.w3.org/2000/svg" viewBox="0 0 126.07 35.15">
  <defs>
    <style>
      .cls-1 {
        fill: #000;
        stroke-width: 0px;
      }
    </style>
  </defs>
  <path class="cls-1" d="M107.07,27.22h-7.48c-.02.19-.03.38-.05.56,1.1.15,2.2.3,3.38.46-5.79.37-11.49.87-17.2,1.06-5.77.2-11.71-.7-17.3.35-4.84.91-9.66-3.55-14.23,1.13,5.44.33,10.88.62,16.32.99,4.89.33,9.78.69,14.65,1.14.54.05,1.02.77,1.52,1.18-.55.37-1.12,1.09-1.65,1.06-3.51-.18-7.01-.62-10.53-.78-1.74-.08-3.51.42-5.25.36-9.71-.35-19.42-.8-29.13-1.18-2.21-.09-4.42-.01-7.03-.01-1.72-4.22-1.15-8.93.16-13.7-5.59-.43-11.17-.86-16.75-1.29,0-.15,0-.29,0-.44,6.15-.31,12.29-.62,18.44-.93,0-.43.02-.86.03-1.3-6.65-.29-13.32-.44-19.96-.91-4.48-.32-8.93-1.08-13.39-1.73-.46-.07-.82-.73-1.64-1.51,4.16-1.13,7.65-3.9,11.6-.35.39.35,1.86-.51,2.81-1.61-3.58-.44-7.16-.89-10.73-1.33.01-.34.02-.68.03-1.01h46.35c.04-.34.07-.68.11-1.02-3.44-.76-6.89-1.52-10.99-2.43,1.57-.35,2.51-.56,4.35-.98-4.4-.86-7.93-1.56-11.9-2.34C32.26.35,32.61,0,32.95,0c13.13.2,26.27.34,39.39.7,6.68.18,13.36.74,20.03,1.19.98.07,2.24.13,2.85.73,1.03,1.01,2.06,2.38,2.28,3.73.14.85-1.21,1.93-1.98,3.04,4.31,3.48,9.93,2.3,15.26,2.59,3.91.21,7.82.36,11.73.6,2.42.15,4.96.22,2.59,3.85-.43.65.36,2.1.66,3.54-.18.09-.63.19-.92.46-2.66,2.5-4.95-.57-7.47-.52-1.4.02-2.78-1.03-4.22-1.2-3.96-.47-7.94-.97-11.92-1.04-8.62-.15-17.24-.05-25.86-.05-.01.38-.02.77-.03,1.15,10.71.83,21.42,1.66,32.13,2.48-.02.54-.05,1.07-.07,1.61h-25.84c-.01.16-.03.32-.04.48,8.48,1.06,16.95,2.12,25.43,3.19.04.23.08.47.12.7ZM120.97,17.11c-.02-.39-.05-.78-.07-1.18h-12.62c0,.39,0,.78,0,1.18h12.68Z"/>
</svg>