<?xml version="1.0" encoding="UTF-8"?>
<svg id="Layer_1" data-name="Layer 1" xmlns="http://www.w3.org/2000/svg" viewBox="0 0 134.89 73.53">
  <defs>
    <style>
      .cls-1 {
        fill: #000;
        stroke-width: 0px;
      }
    </style>
  </defs>
  <path class="cls-1" d="M125.68,47.66c2.47,1.81,4.74,3.47,7.6,5.56-3.65,2.78-6.68,5.39-10,7.52-2.86,1.83-6.02,3.21-9.14,4.58-.89.39-2.11.06-3.41-.76-3.39,2.91-6.79,5.82-10.43,8.96-1.95-1.84-3.78-3.72-5.78-5.39-1.62-1.35-2.56-4.42-5.83-2.46-.39.24-2.28-1.65-3.22-2.77-2.57-3.06-4.78-3.26-7.58-.23-2.13,2.3-3.99,4.85-6.04,7.23-.63.74-1.47,1.3-2.87,2.51.29-1.4.41-2,.61-3-4.96,1.75-8.98-.49-13.12-2.79-1.33-.74-3.24-3.13-5.05-.25-.1.16-.91.14-1.05-.05-2.1-2.84-4.1-1.15-6.39.68-.93-1.29-1.72-2.4-2.64-3.69-2.03,1.36-3.77,2.53-5.44,3.66-3.24-1.9-3.69-4.24-1-7.42-1.15.33-2.03.76-2.16.59-3.63-4.56-5.74-.05-8.32,1.38-1.6.88-3.05,2.05-4.68,2.84-1.04.5-2.95,1.15-3.33.72-1.79-2.01-4.1-4.26-4.41-6.66-.21-1.63,2.38-3.87,4.08-5.45,3.22-2.97,6.72-5.64,10.05-8.48.44-.38.63-1.06.64-1.07-2.14-.2-4.3-.05-6.12-.77-.59-.24-.26-2.77-.36-4.43-.81-.15-1.99-.37-4.1-.75,2.27-3.38,4.32-6.43,6.83-10.17-2.24-.28-4.47-.57-6.71-.81-.32-.03-.95.3-.96.29-.67-1.87-1.48-3.72-1.77-5.66-.06-.42,1.74-1.14,2.7-1.68,1.87-1.05,3.75-2.09,5.65-3.09,3.61-1.9,5.37-6.34,10.13-6.89,1.79-.21,3.34-2.33,5.03-3.53,1.26-.89,2.62-2.44,3.87-2.38,2.99.15,5.67.56,6.52-3.56.19.92.38,1.84.6,2.94,1.53-.43,2.89-.81,4.97-1.39-.72,3.59-1.31,6.5-1.93,9.56,1.01.66,2.32,1.89,3.87,2.42,1.06.36,2.62.05,3.67-.5,2.93-1.53,5.62-3.52,8.58-4.98,2.04-1,4.37-1.41,5.94-1.89,1.15,1.61,1.79,2.5,2.72,3.82-4.35,4.9-9.01,10.15-13.66,15.39.21.27.42.54.63.81,7.13-4.53,14.26-9.07,21.91-13.93.24,1.68.41,2.26.37,2.83-.04.61-.29,1.21-.28,1.17,1.48.74,2.87,1.42,4.72,2.35-1.25,1.09-1.71,1.5-2.18,1.9-.35.3-.71.6-.76.64,1.77,2.52,3.42,4.85,5.22,7.41,1.06-.58,2.6-1.43,4.99-2.75-1.73,3.17-2.48,6.02-4.32,7.59-3.35,2.86-1.66,4.2.76,5.66,3.16-1.93,6.27-3.83,9.74-5.95-.69-.54-1.15-.9-1.75-1.36,2.24-2.03,4.24-4.26,6.64-5.9,3.67-2.52,8.27-.87,10.99,3.59,1.21,1.97-.28,5.43-3.23,7.53-.38.27-.71.63-.83,1.62,1.41-.3,2.81-.61,4.75-1.02-.33,1.18-.55,1.99-.77,2.79.17.04.47.21.58.13,1.49-1.12,3.1-2.12,4.38-3.44,3.98-4.1,7.63-3.62,11.09,2.06-2.91,2.71-5.9,5.5-9.21,8.58Z"/>
  <path class="cls-1" d="M1.97,25.84c1.61.44,3.09.85,4.57,1.25.11-.21.22-.42.34-.63-1.02-.73-2.03-1.46-3.59-2.57,3.19-.44,5.76-.89,8.34-1.06.54-.03,1.68,1.12,1.61,1.56-.15.88-.78,2.03-1.53,2.38-1.86.86-3.98,1.3-1.28,4.2-4.37-1.86-5.78-1.33-8.93,2.9-2.2-2.06-1.92-5.54.48-8.04Z"/>
  <path class="cls-1" d="M17.14,7.36c.37,2.79.73,5.5,1.09,8.21-2.99-2.62-3.31-7.19-1.09-8.21Z"/>
</svg>