<?xml version="1.0" encoding="UTF-8"?>
<svg id="Layer_1" data-name="Layer 1" xmlns="http://www.w3.org/2000/svg" viewBox="0 0 137.63 89.14">
  <defs>
    <style>
      .cls-1 {
        fill: #000;
        stroke-width: 0px;
      }
    </style>
  </defs>
  <path class="cls-1" d="M108.65,85.1c-.35-2.36-.61-4.15-.88-5.94-.43,0-.87,0-1.3,0-.28,1.72-.56,3.45-.76,4.71-1.22-.18-2.61-.38-4-.59v4.36c-3.42-.47-2.9-7.1-8.71-5.55,1.52,1.12,2.46,1.8,3.58,2.62-1.19.06-2.22.11-3.96.19,3.06-5.53-4.51-6.27-4.49-10.3-1.62-.67-3.42-1.56-5.33-2.11-.52-.15-1.59.56-1.97,1.15-1.4,2.2-2.62,4.52-3.9,6.8l-1.3-.79c1.01-1.6,2.01-3.2,3.4-5.4-2.08,1.21-3.43,1.99-5.46,3.17.37-1.9.61-3.2.93-4.85-1.22.84-2.27,1.56-3.46,2.38.47.65.94,1.29,1.41,1.94-.21.29-.41.58-.62.86-.77-.48-2.28-1.18-2.21-1.4,1.42-4.53,1.01-8.89-1.46-12.97-.65,1.09-1.52,2.57-2.4,4.06-1.46-2.71,2.17-6.58-1.31-8.35-3.21,1.72-6.02,3.17-8.76,4.74-.85.49-2.17,1.34-2.15,1.99.12,5.07-2.42,8.77-5.39,11.61-.79-.9-1.68-1.91-2.57-2.92-.93,1.21-1.85,2.42-2.6,3.4-.17-.29-.73-1.26-1.8-3.11-.42,3.2-.69,5.33-.97,7.46-.16,0-.31,0-.47,0-.09-1.72-.19-3.44-.29-5.3-.6,1.78-1.19,3.26-1.59,4.78-.38,1.43-3.16,2.3-1.06,4.33-1.1.79-2.2,1.59-3.2,2.32-.32-2.95-.64-5.8-.95-8.66-.28,0-.56,0-.84,0-.26.88-.52,1.77-.79,2.65-.18-.08-.52-.16-.53-.25-.13-3.92.07-7.89-.53-11.73-.18-1.16-2.47-2.49-3.98-2.8-1.45-.3-3.34,1.29-4.69.89-2.4-.71-4.54-2.3-7.5-3.91,1.71-1.02,2.38-1.43,3.06-1.83-.02-.28-.04-.56-.05-.84h-6.53c-1.21-1.71-3.15-3.87-4.34-6.4-.57-1.2-.24-3.58.64-4.56,2.09-2.33,4.72-4.15,3.21-7.92-1.15-.06-2.49-.13-3.83-.2.27-.2.53-.41.8-.61-1.21-2.3-2.14-4.81-3.71-6.84-2.38-3.09-3.43-6.57,1.15-9.01-1.25-1.68-2.49-3.35-4.21-5.65,1.46.55,2.47.62,2.97,1.16,4.14,4.55,8.03.11,12.02-.24-.19-1.23-.38-2.47-.59-3.87.88.45,1.96,1,3.32,1.69,1.01-6.23,1.97-12.18,3.01-18.59,4.53,1.67,4.44,6.17,6.05,10.39,1.94-.33,4.02-.69,6.13-1.05-1.04-2.9-1.77-4.91-2.49-6.92.25-.29.49-.58.74-.86.62.76,1.7,1.47,1.79,2.28.29,2.93,1.12,4.43,4.31,2.73.64-.34,1.63-.08,2.45,0,1.37.15,2.73.38,4.54.65.44,1.12-.79,2.66-4.41,4.32,2.7,4.11,2.2,5.66-2.23,6.6.31-.82.6-1.58.89-2.34-.87.09-1.74.18-2.86.3-.32-.8-.72-1.78-1.12-2.76-.4.16-.79.32-1.19.48.64,1.3,1.05,2.82,1.99,3.85.85.93,2.58,1.09,3.39,2.03.93,1.08,1.28,2.67,2.24,4.84,1.9-1.28,4.41-2.97,6.93-4.66.1-.07.2-.27.25-.26,4.36,1.61,5.37-1.5,5.88-4.46,2.99,2.16,5.66,4.09,8.98,6.5.91-2.45,1.75-4.71,2.84-7.63.72,2,1.23,3.41,1.74,4.82.26-.04.51-.09.77-.13-.03-.69-.07-1.38-.14-2.77,2.22,4.22,4.11,7.81,5.89,11.19,3.18-.83,4.22-5.62,8.3-2.9.78.52,2.37-.1,3.57-.3,1.56-.26,3.1-.61,4.76-.95.27-.92.63-2.17.99-3.42,1.57,3.32,3.29,4.21,6.2,1.51.21,1.32.39,2.39.71,4.37.94-1.85,1.52-3,2.25-4.43,1.24,1.54,2.45,3.04,3.93,4.89.21-.09.92-.41.75-.34,2.09,1.02,3.52,1.72,5.18,2.52-.26,1.11-.54,2.33-.96,4.17,1.5-.69,2.41-1.11,2.9-1.34.64,1.18,1.54,3.43,1.88,3.34,1.83-.45,3.52-1.46,5.25-2.29-1.17-1.14-2.33-2.29-3.5-3.44,1.14-1.18,2.46-2.53,3.98-4.1-.91-.62-1.79-1.21-2.7-1.83.71-2.09,1.42-4.17,2.25-6.61,1.55,2.24,3,3.9,3.94,5.82.77,1.58,1.03,3.55-2.23,1.86.32,1.3.52,2.13.57,2.35,1.32-.07,2.55-.47,3.39-.06.56.27.83,1.73.74,2.61-.3,3.2-.86,6.37-1.18,9.57-.06.55.55,1.16,1.14,2.31,2.14-7.05,4.02.71,6.09-1.52.04.43.08.85.12,1.28-.83.29-1.66.57-2.7.94.18.71.38,1.49.58,2.27-1.25.52-2.43,1.01-3.53,1.47-.22-.79-.45-1.58-.73-2.56-1.41.74-2.57,1.35-3.74,1.96,2,2.99,2.2,3,10.2.3-.26,1.23-.49,2.38-.75,3.64-.79-.21-1.44-.38-3.13-.83,1.38,1.52,2.11,2.32,3.02,3.32-1.73,1.57-4.86,3.33-.27,5.52.54.26.63,1.48.92,2.25-.76.22-1.52.59-2.29.61-1.09.03-2.2-.2-2.71.56-1.83,1.89-3.98,3.56-5.4,5.72-1.69,2.57-3.53,4.28-6.47,5.56-1.41.61-2.04,4.22-2.08,6.49-.04,2.31.9,4.53-1.49,6.3-.44.32-.11,1.62-.25,2.45-.13.76-.4,1.5-1.48,2.05.15-1.97.31-3.93.55-7.03-1.13,1.59-1.59,2.25-2.07,2.88,0,0-.35-.24.14.1Z"/>
  <path class="cls-1" d="M50.92,0c-.87,5.33-3.79,6.88-6.61,4.28,2.23-1.44,4.42-2.86,6.61-4.28Z"/>
  <path class="cls-1" d="M131.84,56.98c3.85-2.89,5.28-2.4,5.79,1.83-1.91-.6-3.52-1.11-5.79-1.83Z"/>
</svg>