<?xml version="1.0" encoding="UTF-8"?>
<svg id="Layer_1" data-name="Layer 1" xmlns="http://www.w3.org/2000/svg" viewBox="0 0 138.64 85.91">
  <defs>
    <style>
      .cls-1 {
        fill: #000;
        stroke-width: 0px;
      }
    </style>
  </defs>
  <path class="cls-1" d="M124.4,44.73q-.38,5.06,2.29,7.39c-4.05-1.32-8.11-2.64-12.75-4.16,2.18,4.84.88,5.53-7.97,5.67-1.17,1.39-2.07,2.45-2.97,3.52.74.43,1.99,1.16,3.38,1.97-2.43.82-4.82,1.62-7.21,2.42.09.39.17.78.26,1.17,1.68.35,3.37.7,5.05,1.04-.01.15-.03.3-.04.45-3.19-.25-6.47-1.09-9.53-.56-2.52.44-4.76,2.48-7.48,4.02.15,1.21,1.5,3.83-2.53,1.81-1.98-.99-4.93,0-7.45.01-1.37,0-2.73-.15-5.02-.28,1.26-1.53,2.06-2.51,3.46-4.21-18.9.75-36.08,6.41-54.06,11.51-1.07-4.56-2.11-9.01-3.25-13.9,2.79-1.53,5.67-3.11,8.98-4.93,4.94,2.5,8.94-.84,14.13-4-5.81,1.43-10.48-.18-15.14-1.01-.23,1.99-.38,3.26-.53,4.54-.43-.02-.86-.05-1.29-.07,1.97-2.65-4.62-5.13.38-8.11-.82-3.2-1.71-6.64-2.83-10.97-2.38,1.75-4.22,3.09-6.05,4.44,2.64-3.71.29-5.83-1.04-7.22-.25-2.18-.4-3.49-.61-5.41,1.89-.7,4.53-1.67,7.72-2.84-.04-.08.39.67.89,1.55.94-.42,1.91-.85,2.1-.93-.51-1.73-.94-3.21-1.42-4.87,3.1.38,5.79.71,8.48,1.04.08-.26.15-.52.23-.79-.61-.58-1.22-1.16-1.83-1.74,1.26-1.02,2.53-2.04,4.21-3.41.05.98-.06,1.91.18,2.74.31,1.09.89,2.11,1.43,3.11.03.06,1.2-.37,1.18-.44-.21-.96-.52-1.89-.53-1.93,3.39-4.05,6.47-7.72,9.55-11.4.28.17.57.33.85.5-.52,1.05-1.03,2.1-1.82,3.71,2.94-.58,5.6-1.09,8.25-1.61-.02-.31-.04-.63-.06-.94-.57-.16-1.14-.33-2.24-.65,2.07-.68,3.66-1.2,5.25-1.72-.18,1.39-.33,2.57-.48,3.76.37.02.74.03,1.11.05-.03-.57-.05-1.13-.08-1.79,1.89.12,3.75.24,5.86.38-.08-.88-.18-1.72-.23-2.56-.42-6.96,3.17-9.53,9.9-7.48,1.13.34,2.77-1,4.31-1.62,0,.05.05.71.09,1.32,2.28.17,4.63.35,7.6.58-1.04.9-1.57,1.36-2.48,2.15,5.32-1.3,14.83,4.06,15.04,8.17-2.14-.52-4.24-1.03-7.41-1.8,1.81,2.06,3.2,3.13,3.76,4.52.27.68-.79,2.26-1.65,2.9-.6.45-1.88-.02-3.01-.08.46,2.16.87,4.08,1.32,6.17,1.04.06,2.13.12,3.8.22-.85.79-1.36,1.26-2.61,2.42,5.22,1.49,9.97,2.84,14.72,4.2,0-.2,0-.4.01-.6,4.27,2.42,8.55,4.84,11.99,6.79-.72,2.18-1.26,3.81-1.8,5.44.43.07.86.13,1.28.2-.18-.47-.37-.95-.85-2.18,1.91.58,3.4.98,4.86,1.49,1.84.64,3.61,1.53,5.49,1.99,2.3.57,1.6-1.45,1.54-2.41-.05-.67-.97-1.28-1.5-1.92l.67-1c3.48,1.99,6.96,3.98,9.63,5.51.31,2.8.51,4.63.75,6.85-.52,1.06-1.3,2.65-2.22,4.54-2.31-1.67-4.79-3.46-7.46-5.38.36-.55,1.01-1.53,1.88-2.85-2.14-.82-4.08-1.57-6.43-2.47ZM62.67,56.39c2.85-.4,5.44-.77,8.04-1.14-.01-.43-.02-.86-.03-1.29,1.01.64,2.03,1.27,3.04,1.9.66-.92,1.26-1.76,2.18-3.03-3.84,0-7.26.11-10.68-.03-2.62-.11-3.76.66-2.54,3.59ZM27.96,32.87c3.79-.19,7.29-.73,8.47-5.23-3.08,1.9-5.77,3.56-8.47,5.23Z"/>
  <path class="cls-1" d="M130.89,56.03h-5.87c-.04.32-.07.64-.11.96,2.13.3,4.29.52,6.4.93,3.75.72,4.73,2.9,2.65,5.95-1.45,2.13-3.06,4.14-4.85,6.52-2.71-3.38-3.92-7.32-7.98-7.19-1.35,3.22-2.58,6.16-3.81,9.1-1.06-2.06-5.22-3.43-1.27-6.07-.63-.89-1.26-1.78-2.15-3.05v-5.69c2.45-.34,5.42-.75,9.01-1.25-1.12-1.44-1.8-2.32-2.49-3.2.12-.35.24-.7.37-1.05,3.39,1.02,6.78,2.04,10.17,3.06-.03.33-.05.66-.08.99Z"/>
  <path class="cls-1" d="M79.99,84.79c.26-.49.64-1.21,1.06-2-2.53-.11-4.84-.47-7.09-.25-2.51.25-3.38-1.85-3.32-3.05.08-1.46.83-3.24,3.4-3.58,4.45-.58,8.79-2.01,13.21-2.96.47-.1,1.17.56,1.64,1,.15.14-.14.73-.23,1.14,2.24.3,4.71.63,7.18.96,0,.25,0,.5-.01.75-6.3.85-12.61,1.7-18.91,2.54,4.32,1.24,8.99-1.12,13.13,1.95-1.47.12-2.94.23-4.41.35.01.21.02.42.03.63h7.7c.02.25.03.5.05.75-1.86.17-3.8.09-5.56.62-.86.26-1.37,1.65-1.83,2.26-1.88-.35-4-.74-6.04-1.12Z"/>
  <path class="cls-1" d="M100.15,21.16c.7-.15,1.87-.41,2.13-.47,1.6-2.25,2.76-3.96,4.03-5.59.15-.19.86.07,1.31.12,2.79.3,3.53,3.35,2.85,4.38-1.38,2.07,2.38,5.24-2.06,6.59-2.69.82-4.92,1.36-6.89-.52-.9-.86-.87-2.7-1.37-4.5Z"/>
  <path class="cls-1" d="M0,33.38c2.49-.36,4.99-.72,7.75-1.11-1.26-.72-2.13-1.22-3.01-1.72,2.38,1.08,5.15-2.02,7.34.8,1.48,1.9,1.87,3.97-.12,4.43-4.48,1.04-8.52-.22-11.96-2.39Z"/>
  <path class="cls-1" d="M109.04,81.47c.08-.77.17-2.14.24-2.14,1.84,0,3.69.16,5.53.28,0,.33,0,.67-.01,1-1.02.15-2.04.3-3.53.52,1.03.89,1.81,1.56,2.43,2.09-1.39.65-2.74,1.28-4.4,2.05.04-.66.08-1.34.14-2.37-1.27-.21-2.65-.44-4.02-.68,0-.16,0-.32,0-.48,1.26-.1,2.52-.2,3.62-.29Z"/>
</svg>