<?xml version="1.0" encoding="UTF-8"?>
<svg id="Layer_1" data-name="Layer 1" xmlns="http://www.w3.org/2000/svg" viewBox="0 0 131.3 69.26">
  <defs>
    <style>
      .cls-1 {
        fill: #000;
        stroke-width: 0px;
      }
    </style>
  </defs>
  <path class="cls-1" d="M29.67,63.69c.46-1.8.92-3.59,1.44-5.66-2.06,1.44-3.84,2.68-5.74,4-1.67-5.09-5.57.42-7.55-2.3-.6,1.18-1.1,2.16-1.59,3.13-1.34-.23-2.63-.45-5.44-.93,1.59-1.1,2.5-1.74,3.39-2.35-1.43-.23-3.07-.51-4.51-.74-.97-2.09-1.86-4.1-2.87-6.04-.1-.2-.99-.2-1.36,0-.31.16-.57.75-.56,1.14.01.8.22,1.59.41,2.77-6.68-5.7-6.85-6.58-1.65-8.97-.14.72-.23,1.2-.36,1.83h8.14c-1.11-1.36-1.75-2.13-2.59-3.16,2.11.37,3.84.68,5.58.99.08-.33.17-.67.25-1-.92-.32-1.84-.63-2.79-.96.06-.11.11-.34.25-.42,1.84-1.1,4.12-1.63,3.88-4.75-.05-.68,2.8-2.44,4-2.19,4.29.9,5.5-3.09,8.13-4.69.49-.3-.32-2.75-1.37-4.04.56-1.57,1.21-3.12,1.66-4.73.86-3.1,2.76-3.71,5.55-2.48,1.51.67,3.55.12,5.45-.66-.64-.22-1.27-.43-2.25-.77,6.1-3.13,12.3-1.73,18.26-2.3,1.48-.14,3.1.22,4.44-.25,1.4-.49,3.57-1.64,3.63-2.62.21-3.3,2.48-3.42,4.67-3.88,2.54-.53,5.11-.97,8.07-1.53-.81-.52-1.18-.76-1.67-1.07,1.99-.95,6.09.34,4.59-4.22,2.63-1.54,5.1-3.85,7.94-4.45,6.39-1.35,12.29.8,17.78,4.19.54.34,1.58-.12,2.51-.22.43,1.29.91,2.74,1.42,4.26-.34.11-.91.29-1.58.5,1.38,2.93,2.72,5.79,4.01,8.54-.63,1.26-1.41,2.84-2.2,4.44q8.67,3.71,6.67,8.15c5.3,1.31,8.29,4.91,9.36,10.2-2.61,0-.08,6.07-4.68,4.84-2.67-.72-5.31-1.51-8.47-2.42-.23.49-.72,1.55-1.4,3.02-.45-1.45-.8-2.57-1.15-3.69-2.31-.76-5.63-.2-5.47-4.24,0-.22-1.27-.79-1.8-.65-.68.18-1.38.82-1.76,1.45-.71,1.16-1.2,2.46-2.17,3.37,0,2.31.85,5.21-.23,6.77-1.14,1.64-4.12,1.98-6.96,3.17.98.72,2.04,1.49,3.19,2.33-.5.88-1.11,1.96-1.88,3.31-.61-.56-1.17-1.07-1.69-1.55q-.95,1.99,2.69,3.19c-1.1,1.01-2.11,1.93-3.69,3.37,1.59.13,2.33.19,3.07.24,0,.36.04.57,0,.59-2.44,1.19-4.83,3.18-7.36,3.37-5.85.45-11.8.37-17.64-.2-2.5-.25-4.71-2.54-7.62-2.2-1.6.19-3.22.14-4.84.21,0,.49.02.99.03,1.48,1.64.17,3.28.33,4.91.5.01.24.02.48.03.72-1.89.28-3.79.56-5.79.85-1.47-2.5-3.34-4.19-6.2-1.65-.57.5-.56,1.65-.81,2.49-1.53-1.3-3.46-2.95-5.15-4.39-2.03.74-4.12,1.5-6.45,2.34.41-.96.66-1.55.53-1.25-2.44-.79-4.56-1.47-6.67-2.15,0,0,.05,0,.05,0ZM95.11,44.62c-.35.07-.7.15-1.05.22.98.18,1.97.36,3.87.71-3.6-2.79-.14-7.39-4.25-9.21.48,2.76.96,5.52,1.43,8.28Z"/>
  <path class="cls-1" d="M29.62,63.7c.14,1.38.56,2.81.31,4.12-.11.6-1.51.97-2.33,1.44-.6-1.12-1.13-2.29-1.83-3.35-.64-.96-1.47-1.78-2.33-2.8,2.08-.41,4.01-.8,6.11-1.22-.47.93-.98,1.93-1.48,2.93.12.09.23.18.35.26.43-.46.86-.93,1.27-1.4-.01,0-.07,0-.07,0Z"/>
  <path class="cls-1" d="M131.3,34.65c-1.28,2.79-2.23,4.87-3.18,6.94l-1.5-.44c.43-2.26.78-4.53,1.41-6.73.05-.19,1.87.12,3.27.23Z"/>
</svg>