<?xml version="1.0" encoding="UTF-8"?>
<svg id="Layer_1" data-name="Layer 1" xmlns="http://www.w3.org/2000/svg" viewBox="0 0 125.47 96.28">
  <defs>
    <style>
      .cls-1 {
        fill: #000;
        stroke-width: 0px;
      }
    </style>
  </defs>
  <path class="cls-1" d="M46.96,65.45c.71-.03,1.53-.07,2.35-.11.03-.28.05-.57.08-.85-1.27-.23-2.55-.46-3.98-.72.08-1.5.16-3,.29-5.31,1.05,1.27,1.61,1.94,2.73,3.29.39-1.61.72-2.73.92-3.89.23-1.33.33-2.67.52-4.31-.72.65-1.3,1.31-2.01,1.76-.24.15-.89-.14-1.21-.4-.17-.14-.07-.63-.09-.97l-1.09-3.45c-.84.39-1.69.77-2.51,1.15v-3.96c-1.38,2.11-2.2,3.48-3.14,4.78-.67.93-1.5,2.48-2.25,2.47-1.79-.02-3.84-.39-4-3-.19-3.16-.48-6.31-.75-9.71-1.31.4-2.36.71-3.99,1.2.32-1.07.53-1.74.73-2.41,1.76.98,2.27-.37,1.63-1.34-.56-.86-2.17-1.39-3.33-1.41-1.06-.02-2.13.85-3.42,1.43.66.19,1.34.37,2.88.8-1.35,1.32-2.37,2.31-3.39,3.3-.51-.79-1.01-1.58-2.09-3.25-.24,1.96-.4,3.35-.6,4.99-3.01-3.87-7.44-3.28-11.89-3.38-.87,2.87-1.5,5.37,2.85,5.71.72.06,1.35,1.29,1.74,2.23q-2.57-1.15-3.69,4.6c1.34-.44,2.74-.9,4.13-1.36-.38,2.44-.75,4.87-1.03,6.66H1.55c-.15-1.17-.35-2.74-.54-4.3.19-.04.38-.08.57-.13.22.74.45,1.47.67,2.21.27.05.54.09.81.14.4-2.17.81-4.33,1.21-6.52.51.34,1.11.74,2,1.33.22-3.63.41-6.99.62-10.42-1.52,1.37-2.69,2.42-3.86,3.47-.45-.23-.91-.45-1.36-.68.33-1.37.39-3.77,1.03-3.94,5.15-1.32,3.38-5.33,3.6-8.52.17-2.49-.68-4.26-4.07-3.71,1.54-3.89,2.94-7.4,4.36-10.99-2.59-1-4.59-1.78-6.59-2.56,8.18,1.37,6.7-.33,12.27-3.49-.09-4.32,3.07-9.5-3.77-11.93,8.02.27,12.57,10.39,13.55,17.03-1.41-.46-2.71-.88-4.01-1.31-.13.4-.26.8-.39,1.2,1.82.61,3.65,1.22,6,2.01,0-1.71-.13-2.8.04-3.85.14-.86.42-2.06,1.04-2.43,3.98-2.4,8-4.75,12.15-6.82,1.29-.64,3.02-.41,5.74-.7-3.14,3.54-.45,4.03,1.49,5.19-1.57,1.3-2.87,2.38-4.18,3.47,2.12,3.91,3.41,4.12,7.24,1.69,1.46-.93,3.35-1.17,5.43-.94.68-1.41,1.36-2.82,2.04-4.23.29-.18.57-.36.86-.54.18.85.36,1.71.53,2.56.11-.58.23-1.15.34-1.73,1.48-.65,3.19-2.13,4.4-1.8,6.1,1.66,11.87-1.12,17.73-.83,3.7.19,7.32,2.15,10.9,3.52.24.09-.14,1.83.35,3.13.54-1,1.07-2.01,1.52-2.84,1.16.79,2.34,1.59,4.21,2.86-.15-2.38-.26-4.19-.44-7.25,3.07,2.62,5.34,4.76,7.86,6.58.7.51,2.17.24,3.18-.03,2.65-.71,5.21-1.82,7.89-2.35.99-.2,2.9.5,3.21,1.26,1.54,3.83,4.48,4.54,8.25,4.11.23,2.93-.4,4.81-3.74,4.46-.42-1.73-1.18-1.97-5.65-1.31,2.36,2.28,3.92,4.42,6.01,5.65,2.78,1.63,2.93,2.82.39,4.62-.55.4-.86,1.12-1.39,1.57-2.04,1.73-4.68,3.36-.49,6.05-1.81-.11-3.63-.22-5.44-.33-.03.12-.07.23-.1.35.71.26,1.75.31,2.05.81.6,1.01.79,2.26,1.16,3.41-1.1.06-2.2.13-3.3.19-1.73.1-3.46.19-5.59.31,1.34,1.65,2.26,2.78,2.62,3.23,1.25,0,2.21-.3,2.64.06,1.31,1.05,2.41,2.35,3.59,3.55-.84.62-1.68,1.23-2.6,1.92.3.99.76,2.27.99,3.6.03.16-1.23.53-2.25.13.47-.36.94-.73,1.47-1.14-5.16-2.87-11.41.51-11.48,6.53-.11,10.36.24,20.72.4,31.08,0,.5.32,1.11.12,1.49-.56,1.08-1.3,2.07-1.97,3.1-.85-.91-2-1.68-2.48-2.75-.48-1.1-.32-2.48-.4-3.74-.6-9.38-.99-18.78-1.94-28.13-.24-2.37-1.86-5.03-3.65-6.68-2-1.84-4.27-.34-5.69,1.69-.78,1.1-1.26,2.41-1.63,3.15-3.46.71-6.59,1.35-9.65,1.98.31,4.16-1.4,6.43-5.5,6.86,1.33.74,2.01,1.19,2.73,1.5,4.91,2.15,9.43,1.34,13.76-1.67.19-.13,2.53,1.82,2.38,2.42-.37,1.45-1.74,2.62-2.47,4.02-.37.71-.23,1.69.2,2.65-.55,1.32-4.26-2.26-3.14,2.82-2.95-1.88-4.68-1.85-5.58,1.35-.2.71-2.1,1.05-3.28,1.34-3.42.82-6.87,1.48-10.29,2.32-.76.18-1.4.82-2.27,1.35-3.95-3.19-4.15-9.83-.16-19.85.57.04,1.22.26,1.71.06.54-.21,1.15-.73,1.33-1.24.16-.49-.05-1.54-.37-1.66-.57-.23-1.61-.21-1.99.17-1.77,1.74-3.39,3.64-5.06,5.47-3.05-3.06-5.84-.9-7.51,2.09-1.5-1.9-3.18-4.04-4.96-6.31ZM63.14,54.71q-.75,5.22,2.72,7.69c.6-4.65.13-6.09-2.72-7.69Z"/>
  <path class="cls-1" d="M124.35,61.29c-2.73,2.14-4.77,3.82-8.32,2.62-2.72-.92-2.54-3.13-3.3-4.9-.12-.27,2.13-2.25,2.75-2.01,2.87,1.06,5.55,2.63,8.87,4.3Z"/>
  <path class="cls-1" d="M20.18,65.93q-.09-7.39,5.04-7.17-2.01,6.07-5.04,7.17Z"/>
  <path class="cls-1" d="M97.48,64.9l-3.55,1.82c-.41-1.17-.82-2.34-1.58-4.51,2.45.74,3.65,1.11,4.84,1.47.09.41.19.82.28,1.23Z"/>
</svg>