<svg width="1275" height="1742" viewBox="0 0 1275 1742" fill="none" xmlns="http://www.w3.org/2000/svg">
<path d="M466 146H803V365L749 463.5L638 1018.5L508.5 463.5L466 365V146Z" fill="#B1957B"/>
<g clip-path="url(#clip0_139_109)">
<ellipse cx="504.517" cy="419.609" rx="46.1053" ry="2.07204" transform="rotate(-122.41 504.517 419.609)" fill="#622F25"/>
<ellipse cx="530.993" cy="420.176" rx="23.7912" ry="1.6988" transform="rotate(-122.41 530.993 420.176)" fill="#622F25"/>
</g>
<g clip-path="url(#clip1_139_109)">
<ellipse cx="551.879" cy="302.969" rx="33.5" ry="14.5" transform="rotate(2 551.879 302.969)" fill="#F2F2F2"/>
<circle cx="551.879" cy="302.969" r="14.5" transform="rotate(2 551.879 302.969)" fill="#7AA0B7"/>
<circle cx="552.361" cy="303.486" r="10" transform="rotate(2 552.361 303.486)" fill="#0D0D0D"/>
</g>
<path d="M498.897 273.268L578.302 273.189L582.924 291.16L497.982 283.728L498.897 273.268Z" fill="#98885F"/>
<rect x="575" y="447" width="120" height="16" rx="8" fill="#E57070"/>
<path d="M861.082 159.311L851.885 161.643L857.444 164.281L860.88 166.918L856.433 169.149L859.566 171.685L851.885 173.714L856.231 176.351L854.412 178.684L854.816 181.118L850.369 183.349L855.018 185.987L851.076 188.218L853.906 190.754L853.199 193.087L855.018 195.622L855.423 198.057L855.726 200.491L858.758 203.027L853.098 205.157L852.39 207.591L856.13 210.127L851.178 212.358L850.571 214.793L853.603 217.328L850.268 219.56L853.805 222.197L850.975 224.428L853.502 226.964L852.896 229.398L848.145 231.529L852.896 234.166L851.481 236.6L851.582 238.933L851.481 241.367L855.423 244.004L848.651 246.134L854.614 249.177L853.502 251.713L849.156 252.829L845.619 254.249L844.911 256.582L844.81 259.117L843.698 261.45L849.662 266.015L842.991 266.319L840.868 268.246L848.853 273.52L847.135 275.549L841.273 276.158L843.193 279.403L839.959 280.925L836.826 282.446L841.273 286.503L842.991 289.648L838.847 290.865L834.501 292.082L839.757 296.444L838.443 298.574L834.804 299.994L839.049 303.949L835.613 305.369L833.591 307.297L828.639 308.311L832.783 312.267L832.176 314.904L825.506 313.788L831.469 320.482L827.729 321.091L824.596 321.902L823.282 324.032L821.16 325.554L825 330.93L824.192 333.364L819.543 333.263L818.835 335.697L813.579 335.291L811.558 336.914L812.164 340.16L811.154 342.493L807.515 343.101L805.999 345.028L810.345 350.708L804.685 349.998L801.35 350.708L803.978 355.374L805.292 359.127L800.137 358.721L803.169 363.59L799.733 360.04L797.711 361.46L794.275 359.33L800.036 356.389L798.318 354.157L799.733 351.621L800.541 349.086L793.264 347.26L794.982 344.724L794.275 342.29L801.552 339.247L801.754 336.813L793.567 335.088L801.249 332.045L796.195 330.017L794.275 327.684L792.557 325.351L799.025 322.41L795.488 320.28L795.286 317.845L790.03 315.918L797.105 312.875L794.578 310.644L791.546 308.412L794.679 305.775L789.12 303.746L797.105 300.704L792.86 298.574L797.61 295.835L794.881 293.604L796.802 290.966L788.413 289.242L788.413 286.808L790.131 284.272L789.12 281.838L789.019 279.403L795.892 276.462L792.051 274.332L791.041 271.999L786.695 269.869L787.301 267.435L790.131 264.696L788.817 262.363L791.546 259.726L787.099 257.697L788.211 255.162L794.073 252.22L788.817 250.192L788.312 247.859L789.828 245.222L787.907 242.99L784.572 240.86L787.604 238.121L791.445 235.383L790.94 232.949L783.561 231.123L787.705 228.384L785.077 226.153L792.354 223.11L786.998 221.081L787.907 218.647L787.503 216.213L783.46 214.083L785.583 211.445L785.785 209.011L783.763 206.78L790.131 203.838L783.258 201.911L781.944 199.578L784.471 196.941L788.312 194.202L788.514 191.768L780.226 189.942L785.886 187.102L788.413 184.465L788.615 181.929L784.875 179.799L788.918 177.061L782.45 175.134L782.146 172.699L788.312 169.758L788.211 167.324L778.71 165.701L777.901 163.266L780.529 162.962L780.731 165.701L778.205 164.483L775.172 160.325L773.454 165.903L770.523 161.948L767.997 162.049L765.975 164.991L763.246 162.759L760.719 162.252L758.597 164.585L756.171 165.193L754.15 168.338L750.713 160.731L748.793 164.686L746.671 167.425L743.436 161.846L741.819 168.135L739.09 166.309L736.766 167.425L734.138 165.498L731.207 162.252L729.185 165.903L726.962 167.425L724.536 168.541L722.212 172.192L719.786 171.888L717.259 166.918L714.833 163.773L712.408 165.092L710.083 172.699L707.556 164.889L705.232 167.222L702.806 170.772L700.38 170.366L697.955 167.526L695.529 170.569L693.103 167.324L690.678 172.091L688.252 164.585L685.826 164.991L683.4 171.685H680.975L678.549 167.324L676.123 166.816L673.698 165.599L671.272 168.135L668.846 166.816L666.421 166.005H663.995L661.569 164.788L659.144 163.165L656.718 163.368L654.393 165.903L651.967 165.701L649.542 165.092L647.116 166.512L644.69 172.395L642.265 163.469L639.839 165.396L637.413 169.454L634.988 168.642L632.562 165.498L630.136 167.526H627.711L625.285 165.802L622.859 171.279L620.433 165.903L618.008 171.178L615.582 171.786L613.156 169.555L610.731 163.773L608.305 170.062L605.98 173.206L603.454 167.222L601.028 164.788L598.703 172.801L596.177 168.236L593.751 168.135L591.325 169.048L589.001 171.178L586.474 164.483L584.048 164.179L581.622 171.584L579.197 167.425L576.771 171.482L574.345 168.034L571.616 173.409L569.393 170.366L567.068 170.164L564.946 166.614L562.116 172.294L559.892 169.961L557.871 163.773L555.041 170.569L552.817 167.019L550.392 168.439L548.168 165.396L546.046 161.643L543.317 166.005L541.194 162.556L538.364 168.642L536.141 166.309L533.614 167.222L531.087 169.454L529.268 162.049L526.943 161.238L524.214 164.585L521.485 169.555L519.06 168.946L517.139 163.165L514.815 161.441L511.884 168.541L509.963 162.252L507.538 162.556L504.708 168.135L502.787 162.151L500.665 158.803L498.037 160.528L497.127 164.483L498.037 165.295L495.106 167.324L495.005 169.758L491.063 171.584L490.659 174.018L490.558 176.452L495.611 179.698L492.984 181.727L488.536 183.451L493.186 186.595L494.398 189.232L491.063 191.159L492.175 193.797L488.031 195.622L490.457 198.462L489.951 200.795L484.595 202.418L488.435 205.461L487.829 207.895L491.973 210.938L488.739 212.865L490.76 215.604L484.089 217.024L487.728 220.067L485.201 222.197L488.334 225.138L487.425 227.37L482.978 229.196L486.01 232.137L486.313 234.571L488.941 237.411L484.291 239.136L485.1 241.773L487.93 244.613L482.978 246.337L479.339 248.264L479.642 250.699L484.898 253.944L483.887 256.277L483.079 258.61L483.584 261.146L483.382 263.58L481.765 265.71L477.621 267.536L479.137 270.275L475.903 272.202L474.488 274.433L475.498 277.07L474.083 279.302L472.668 281.533L479.945 285.083L475.397 286.909L473.679 289.039L471.759 291.169L475.094 294.212L479.137 297.255L474.791 299.081L471.759 301.008L475.397 304.051L468.524 305.471L468.524 307.905L476.913 311.658L472.062 313.382L473.073 315.918L471.658 318.15L467.211 319.975L470.849 323.018L474.083 325.96L472.567 328.191L474.285 330.828L468.12 332.35L468.828 334.987L471.051 337.725L465.391 339.348L469.737 342.493L469.131 344.826L467.918 347.057L466.806 349.39L468.019 352.027L467.716 354.461L464.987 356.49L467.514 359.33L461.652 360.851L465.088 366.329L467.615 359.736L460.742 360.446L460.136 358.011L459.125 355.78L455.688 354.867L459.832 350.201L458.721 348.071L459.024 345.231L457.609 343.203L458.215 340.261L453.263 339.957L454.273 336.813L451.747 335.393L452.252 332.451L445.076 333.263L446.39 330.017L442.954 329.002L446.592 324.54L441.539 324.337L445.784 319.57L438.911 320.28L442.549 315.817L437.294 315.715L436.788 313.281L441.943 308.108L435.171 308.717L439.012 304.152L433.958 303.949L438.911 298.878L433.049 298.979L431.634 297.052L433.15 293.604L429.612 292.691L429.511 290.053L424.256 289.851L427.995 285.591L430.724 283.055L423.043 281.128L430.421 278.186L426.277 276.056L427.894 273.419L427.995 270.985L425.367 268.753L430.017 266.015L423.851 263.885L427.187 261.247L424.053 259.016L421.122 256.683L422.739 254.147L429.107 251.307L426.277 249.076L420.718 246.946L424.559 244.309L424.256 241.874L421.223 239.541L420.819 237.107L427.793 234.267L421.628 232.239L420.516 229.804L424.357 227.167L426.58 224.53L427.187 222.096L422.942 219.864L426.782 217.227L418.191 215.3L426.176 212.358L424.357 209.924L427.288 207.388L419.404 205.36L425.974 202.52L421.021 200.39L423.548 197.752L426.681 195.115L418.393 193.188L426.176 190.247L418.393 188.319L420.92 185.682L420.112 183.248L419 180.915L421.324 178.278L419.909 175.945L418.899 173.511L417.686 171.178L423.548 168.338L419.101 166.208L424.761 163.368L422.436 161.035L421.021 158.702L415.058 156.572L415.058 153.529L423.75 152.312L423.346 149.776L423.952 147.443L422.537 144.705L420.011 141.662L418.191 138.923L419 136.59L424.154 135.17L423.043 132.533L425.468 130.505L424.559 127.867L422.841 125.027L424.154 122.897L425.468 120.666L427.995 118.739L427.187 116.101L423.447 112.856L431.533 112.146L431.937 109.711L428.096 106.466L430.926 104.64L427.692 101.496L432.644 99.9742L429.41 96.8298L429.915 94.497L436.485 93.4827L434.464 90.5412L430.926 87.2955L437.091 86.1797L432.442 82.7311L435.07 80.804L432.442 77.7611L435.373 75.9353L437.395 73.9067L439.214 71.7767L435.98 68.6324L432.644 65.4881L434.16 61.4309L440.124 63.0538L440.73 59.4023L445.885 62.9523L445.986 58.5908L445.784 53.7222L448.816 53.8236L452.757 55.548L452.454 50.375L458.721 55.7508L459.832 52.9108H462.662L464.279 50.7808L462.561 43.5792L467.109 46.2164L469.939 46.0136L468.221 38.812L473.578 42.6664L474.285 39.2178L477.014 38.9135L477.823 35.6677L479.541 33.7406L481.158 31.712L483.483 30.9005L486.313 30.5962L491.366 34.1463L490.962 28.9734L494.5 29.9877L495.611 27.0462L496.824 24.409L499.351 23.699L500.665 21.2647L505.011 23.5976L506.123 20.6561L507.336 18.019L510.166 17.9175L512.086 14.7732L514.41 14.1646L516.937 14.2661L519.868 17.2075L521.991 15.3818L524.518 15.7875L526.034 10.4117L529.672 16.9032L532.3 18.019L534.726 17.8161L536.242 12.5417L538.87 13.556L542.003 17.0047L542.912 8.48456L546.753 16.3961L548.168 10.6146L550.493 10.006L553.323 11.5275L555.849 11.9332L556.961 4.63023L560.802 12.2375L563.43 12.9475L564.541 5.5431L567.169 6.55739L569.898 7.97741L571.414 3.10878L574.446 6.15168L576.973 6.35454L579.298 4.73166L581.825 8.89028L584.25 5.94882L586.676 4.12308L589.102 6.05025L591.628 2.90592L594.054 5.84739L596.48 7.67312L598.905 5.64453L601.432 8.68742L603.858 8.07884L606.284 2.90592L608.709 9.39743L611.135 10.3103L613.662 2.29735L616.087 1.89163L618.513 7.2674L620.939 9.19457L623.466 10.2089L625.891 3.41307L628.317 0.97876L630.743 9.09314L633.269 1.48591L635.695 7.16597L638.121 8.18027L640.547 4.12308L643.073 7.47026L645.499 9.70172L647.925 1.58734L650.35 9.296L652.877 1.7902L655.303 1.08019L657.729 9.09314L660.255 7.2674L662.681 5.64453L665.107 5.5431L667.431 8.78885L669.857 4.12308L672.283 7.47026L674.708 8.99171L677.033 6.65882L679.459 4.42737L681.884 2.29735L684.209 1.89163L686.635 2.60164L689.06 8.68742L691.486 5.5431L693.811 9.19457L696.236 9.90458L698.662 6.55739L700.987 10.4117L703.412 1.99306L705.838 4.5288L708.264 5.64453L710.588 7.47026L713.014 8.89028L715.44 1.08019L717.764 10.4117L720.19 6.25311L722.616 5.84739L725.042 9.90458L727.366 1.08019L729.792 3.41307L732.218 7.16597L734.643 0.97876L736.968 7.97741L739.394 1.48591L741.819 3.10878L744.346 4.22451L746.266 8.78885L749.501 1.68877L751.017 8.78885L753.644 7.06454L756.171 6.65882L758.092 10.6146L760.82 7.2674L763.448 5.84739L766.076 3.71736L767.592 10.8174L770.826 4.22451L772.039 13.7589L774.566 12.846L776.891 14.1646L779.721 10.1074L781.843 12.6432L785.381 8.99171L785.583 13.2518L790.838 11.2232L792.152 13.3532L793.466 15.3818L790.434 22.1776L792.253 23.8004L794.275 25.2205L800.137 22.4819L799.632 26.6405L799.025 30.7991L804.887 28.0605L808.02 28.2634L809.334 30.3934L811.457 31.712L812.366 34.2477L811.255 38.9135L814.388 39.2178L814.287 42.8692L819.138 41.2464L818.633 45.3036L823.383 43.8835L823.787 46.825L826.213 47.8393L828.841 48.6507L826.718 54.4322L829.548 55.0408L833.49 54.3308L834.299 56.968L833.591 61.228L840.868 57.1708L842.081 59.3009L837.836 67.4152L842.283 66.2995L842.485 69.6467L842.991 70.7624L841.576 72.1824L842.89 74.5153L843.092 76.9496L846.326 79.0796L851.683 80.9054L849.56 83.644L849.965 86.0783L848.247 88.7155L847.64 91.2512L844.911 93.9898L853.805 95.5113L848.449 98.5542L851.986 100.583L849.156 103.423L853.704 105.35L850.773 108.19L854.412 110.219L855.018 112.653L851.38 115.493L852.491 117.826L848.449 120.767L855.524 122.492L854.109 125.027L849.156 128.07L850.066 130.505L852.087 132.736L853.098 135.069L855.22 137.3L858.657 139.43L850.975 142.778L850.773 145.212L857.747 146.936L853.805 149.776L853.805 152.312L855.22 154.645L855.423 157.688L861.082 159.311Z" fill="#98885F"/>
<path d="M1272.87 1031.49L1145.37 691.272C1143.25 684.893 1139 680.64 1132.63 678.514L830.875 572.197L820.25 631.735L775.625 661.503C771.375 665.756 767.125 670.009 767.125 676.388C767.125 682.767 767.125 689.146 771.375 693.398L803.25 725.293L684.25 1003.84H592.875L473.875 725.293L505.75 693.398C510 689.146 512.125 682.767 512.125 676.388C512.125 670.009 505.75 663.63 501.5 661.503L456.875 631.735L444.125 572.197L142.375 678.514C136 680.64 131.75 684.893 129.625 691.272L2.125 1031.49C5.44259e-07 1035.74 2.72828e-06 1037.86 2.71978e-06 1039.99L0 1720.42C-5.09958e-08 1733.18 8.5 1741.68 21.25 1741.68H191.25C204 1741.68 212.5 1733.18 212.5 1720.42V1129.3L265.625 1025.11L297.5 1252.62L255 1675.76C252.875 1686.4 261.375 1697.03 274.125 1699.15L592.875 1741.68C603.5 1743.81 614.125 1735.3 616.25 1724.67L637.5 1584.33L658.75 1724.67C660.875 1735.3 669.375 1741.68 680 1741.68H682.125L1000.87 1699.15C1011.5 1697.03 1020 1686.4 1020 1675.76L977.5 1252.62L1009.37 1025.11L1062.5 1129.3V1720.42C1062.5 1733.18 1071 1741.68 1083.75 1741.68H1253.75C1266.5 1741.68 1275 1733.18 1275 1720.42V1039.99C1275 1037.86 1275 1035.74 1272.87 1031.49Z" fill="#767769"/>
<path d="M422.081 686.686C421.269 686.678 420.332 686.664 419.396 686.649C419.351 686.331 419.317 686.001 419.272 685.682C420.712 685.372 422.164 685.061 423.785 684.711C423.637 683.003 423.489 681.294 423.254 678.664C422.104 680.153 421.49 680.938 420.264 682.52C419.758 680.699 419.339 679.433 419.067 678.118C418.755 676.609 418.59 675.084 418.311 673.221C419.157 673.935 419.844 674.666 420.671 675.152C420.95 675.314 421.681 674.959 422.036 674.65C422.224 674.484 422.092 673.929 422.102 673.54L423.215 669.564C424.188 669.977 425.172 670.378 426.122 670.781L425.972 666.263C427.626 668.618 428.613 670.15 429.735 671.597C430.534 672.633 431.54 674.37 432.395 674.33C434.436 674.24 436.761 673.74 436.844 670.757C436.942 667.145 437.154 663.54 437.333 659.651C438.843 660.058 440.052 660.372 441.93 660.87C441.525 659.661 441.26 658.905 441.006 658.148C439.036 659.332 438.403 657.812 439.096 656.681C439.703 655.679 441.519 655.013 442.842 654.947C444.05 654.884 445.304 655.836 446.797 656.449C446.051 656.69 445.283 656.921 443.542 657.47C445.132 658.925 446.333 660.016 447.534 661.106C448.086 660.186 448.626 659.266 449.795 657.32C450.143 659.547 450.378 661.126 450.668 662.99C453.956 658.461 459.032 658.967 464.104 658.685C465.205 661.926 466.018 664.754 461.069 665.306C460.25 665.402 459.578 666.829 459.168 667.916C461.094 666.976 462.555 668.679 463.551 673.024C462.006 672.573 460.392 672.101 458.789 671.628C459.314 674.398 459.828 677.156 460.215 679.187L473.676 678.741C473.803 677.401 473.972 675.602 474.13 673.815C473.912 673.777 473.693 673.739 473.475 673.689C473.252 674.541 473.017 675.383 472.794 676.235C472.488 676.302 472.181 676.358 471.875 676.425C471.337 673.965 470.788 671.517 470.249 669.033C469.68 669.44 469.01 669.919 468.017 670.626C467.629 666.493 467.285 662.668 466.916 658.763C468.702 660.268 470.076 661.422 471.451 662.575C471.955 662.296 472.472 662.028 472.976 661.748C472.548 660.198 472.389 657.462 471.653 657.293C465.728 655.981 467.595 651.34 467.224 647.709C466.936 644.875 467.839 642.824 471.727 643.323C469.823 638.944 468.093 634.993 466.338 630.951C469.254 629.712 471.506 628.747 473.758 627.782C464.479 629.654 466.103 627.658 459.629 624.264C459.569 619.332 455.768 613.543 463.479 610.512C454.341 611.123 449.532 622.84 448.665 630.451C450.257 629.873 451.724 629.345 453.19 628.805C453.354 629.257 453.517 629.708 453.681 630.16C451.627 630.924 449.563 631.689 446.912 632.679C446.847 630.729 446.954 629.48 446.721 628.289C446.529 627.313 446.164 625.955 445.443 625.556C440.812 622.969 436.137 620.44 431.325 618.235C429.829 617.554 427.864 617.882 424.75 617.654C428.466 621.573 425.416 622.234 423.247 623.63C425.087 625.054 426.61 626.237 428.146 627.431C425.875 631.972 424.412 632.26 419.951 629.632C418.25 628.627 416.085 628.424 413.721 628.765C412.892 627.183 412.063 625.6 411.234 624.017C410.896 623.823 410.57 623.628 410.232 623.433C410.059 624.41 409.886 625.398 409.725 626.374C409.577 625.716 409.419 625.071 409.271 624.413C407.558 623.728 405.552 622.104 404.184 622.526C397.288 624.65 390.601 621.697 383.927 622.249C379.713 622.606 375.658 624.979 371.625 626.677C371.355 626.788 371.854 628.759 371.344 630.26C370.691 629.14 370.048 628.008 369.503 627.078C368.21 628.023 366.894 628.98 364.809 630.5C364.89 627.779 364.947 625.71 365.037 622.213C361.633 625.317 359.125 627.844 356.319 630.016C355.539 630.624 353.852 630.372 352.69 630.102C349.64 629.392 346.678 628.223 343.6 627.719C342.464 627.528 340.311 628.399 339.986 629.278C338.374 633.705 335.047 634.626 330.73 634.278C330.579 637.629 331.368 639.75 335.165 639.225C335.579 637.235 336.437 636.933 341.561 637.517C338.955 640.207 337.256 642.707 334.919 644.189C331.809 646.154 331.683 647.517 334.648 649.474C335.291 649.91 335.672 650.719 336.293 651.213C338.686 653.109 341.759 654.869 337.081 658.096C339.141 657.902 341.214 657.708 343.274 657.514C343.313 657.65 343.363 657.774 343.401 657.909C342.601 658.233 341.417 658.329 341.093 658.911C340.447 660.086 340.278 661.519 339.899 662.845C341.156 662.872 342.414 662.91 343.671 662.937C345.648 662.985 347.625 663.023 350.059 663.079C348.593 665.012 347.586 666.336 347.193 666.863C345.767 666.91 344.66 666.604 344.183 667.031C342.729 668.278 341.523 669.803 340.222 671.216C341.204 671.892 342.185 672.556 343.261 673.308C342.956 674.449 342.479 675.927 342.267 677.453C342.239 677.636 343.69 678.011 344.839 677.516C344.289 677.123 343.739 676.719 343.119 676.271C348.897 672.802 356.154 676.422 356.462 683.286C356.979 695.101 356.971 706.932 357.18 718.757C357.199 719.327 356.857 720.035 357.099 720.461C357.779 721.672 358.66 722.773 359.464 723.923C360.399 722.853 361.682 721.931 362.189 720.692C362.695 719.419 362.46 717.851 362.504 716.41C362.834 705.687 362.924 694.949 363.654 684.247C363.838 681.535 365.586 678.439 367.565 676.489C369.777 674.314 372.424 675.94 374.12 678.202C375.052 679.427 375.649 680.903 376.099 681.734C380.073 682.413 383.667 683.025 387.182 683.628C386.985 688.385 389.022 690.91 393.715 691.246C392.226 692.14 391.467 692.679 390.658 693.06C385.138 695.698 379.951 694.945 374.898 691.675C374.676 691.534 372.08 693.847 372.274 694.525C372.751 696.165 374.358 697.448 375.244 699.018C375.693 699.814 375.57 700.937 375.116 702.048C375.793 703.534 379.89 699.309 378.804 705.147C382.098 702.891 384.073 702.86 385.221 706.476C385.476 707.278 387.656 707.594 389.013 707.881C392.946 708.687 396.906 709.309 400.839 710.138C401.713 710.315 402.467 711.021 403.48 711.593C407.865 707.804 407.843 700.222 402.912 688.942C402.264 689.01 401.53 689.285 400.964 689.075C400.34 688.856 399.624 688.286 399.4 687.711C399.199 687.158 399.399 685.952 399.759 685.803C400.401 685.52 401.588 685.503 402.036 685.922C404.121 687.84 406.04 689.947 408.015 691.971C411.378 688.365 414.643 690.724 416.661 694.071C418.3 691.847 420.136 689.343 422.081 686.686ZM403.217 675.045C403.919 678.996 402.981 681.955 400.405 683.921C399.545 678.639 400.026 676.978 403.217 675.045Z" fill="#5E5A5A"/>
<path d="M333.639 684.865C336.835 687.203 339.225 689.042 343.23 687.539C346.298 686.387 346.009 683.873 346.809 681.825C346.936 681.512 344.294 679.339 343.596 679.636C340.362 680.954 337.364 682.846 333.64 684.876L333.639 684.865Z" fill="#5E5A5A"/>
<path d="M452.648 686.222C452.53 680.599 450.524 677.936 446.628 678.233C448.309 682.799 450.316 685.462 452.648 686.222Z" fill="#5E5A5A"/>
<path d="M364.428 687.967L368.546 689.909C368.97 688.559 369.393 687.209 370.178 684.705C367.412 685.641 366.057 686.109 364.713 686.564C364.626 687.036 364.527 687.507 364.44 687.978L364.428 687.967Z" fill="#5E5A5A"/>
<g clip-path="url(#clip2_139_109)">
<path d="M218.976 716.263C222.464 716.04 225.667 715.832 229.702 715.568C228.541 720.675 227.798 725.178 226.451 729.474C225.286 733.171 223.529 736.692 221.8 740.176C221.306 741.169 219.996 741.774 218.257 742.007C217.419 747.037 216.572 752.075 215.684 757.489C212.629 757.305 209.65 756.999 206.676 757.001C204.269 757.005 201.199 755.004 199.77 759.115C199.604 759.61 196.566 759.339 194.923 759.046C190.432 758.248 188.35 759.691 188.117 764.394C187.935 767.968 188.173 771.562 188.121 775.147C188.111 776.257 187.785 777.362 187.445 779.446C186.674 778.008 186.34 777.395 185.783 776.373C182.721 781.536 177.561 782.518 172.251 783.535C170.545 783.861 167.123 783.166 167.646 787.013C167.676 787.226 166.952 787.802 166.69 787.738C162.772 786.788 162.258 789.733 161.592 793.012C159.834 792.563 158.329 792.169 156.579 791.713C155.797 794.39 155.13 796.689 154.495 798.901C150.267 799.609 148.16 797.889 148.187 793.135C147.422 794.266 146.966 795.287 146.728 795.233C140.211 793.898 141.665 799.392 140.452 802.533C139.695 804.475 139.282 806.561 138.433 808.446C137.889 809.645 136.692 811.613 136.044 811.514C133.005 811.065 129.335 810.785 127.307 808.911C125.93 807.637 126.558 803.78 126.89 801.151C127.535 796.193 128.645 791.293 129.482 786.368C129.589 785.713 129.258 784.979 129.259 784.963C127.239 786.354 125.457 788.067 123.336 788.769C122.644 788.991 121.081 786.533 119.778 785.153C118.959 785.615 117.764 786.286 115.639 787.498C115.152 782.876 114.714 778.705 114.174 773.592C112.007 774.987 109.842 776.365 107.705 777.795C107.403 778.003 107.093 778.753 107.077 778.752C105.121 777.605 103.057 776.578 101.383 775.091C101.023 774.768 102.072 772.819 102.518 771.644C103.386 769.355 104.271 767.068 105.203 764.801C106.973 760.495 105.264 755.318 109.029 751.352C110.443 749.857 110.248 746.866 110.85 744.578C111.301 742.876 111.358 740.523 112.496 739.661C115.224 737.603 117.871 736 115.599 731.77C116.439 732.437 117.279 733.103 118.277 733.905C119.302 732.409 120.215 731.08 121.612 729.05C123.609 732.72 125.223 735.701 126.92 738.834C128.288 738.673 130.336 738.791 132.081 738.12C133.273 737.659 134.412 736.246 134.929 734.995C136.374 731.511 137.273 727.799 138.796 724.353C139.85 721.984 141.59 719.919 142.614 718.349C144.8 718.917 146.012 719.228 147.792 719.703C147.57 727.179 147.333 735.187 147.098 743.18C147.479 743.263 147.861 743.346 148.242 743.428C151.169 734.242 154.089 725.046 157.23 715.19C158.67 716.485 159.244 716.869 159.626 717.397C160.038 717.961 160.258 718.669 160.237 718.627C162.075 718.191 163.79 717.769 166.091 717.229C165.794 719.099 165.692 719.794 165.573 720.489C165.486 721.008 165.391 721.534 165.376 721.606C168.771 722.516 171.922 723.349 175.372 724.273C175.876 722.989 176.602 721.117 177.728 718.211C178.534 722.254 179.964 725.299 179.502 728.021C178.662 732.978 181.123 732.914 184.311 732.42C185.665 728.417 186.998 724.476 188.484 720.08C187.485 720.112 186.818 720.133 185.956 720.17C186.432 716.752 186.55 713.335 187.451 710.142C188.82 705.249 194.056 703.326 199.703 705.24C202.205 706.079 203.433 710.2 202.387 714.199C202.252 714.713 202.227 715.27 202.847 716.225C203.862 714.93 204.861 713.633 206.259 711.854C206.834 713.129 207.235 713.999 207.628 714.861C207.806 714.772 208.193 714.701 208.231 714.55C208.716 712.479 209.393 710.424 209.548 708.331C210.031 701.827 213.579 699.575 220.767 702.016C220.203 706.52 219.627 711.152 218.984 716.272L218.976 716.263Z" fill="#5E5A5A"/>
<path d="M94.6721 787.724C96.4041 786.931 98.0002 786.206 99.5891 785.473C99.5317 785.209 99.4743 784.944 99.4256 784.673C97.998 784.78 96.5791 784.88 94.4004 785.05C96.8717 782.33 98.7927 780.054 100.928 778.016C101.378 777.595 103.219 777.767 103.479 778.204C103.992 779.084 104.283 780.552 103.882 781.408C102.883 783.523 101.349 785.46 105.836 786.023C100.648 787.593 99.8009 789.09 100.139 795.1C96.7047 794.907 94.4022 791.654 94.6736 787.708L94.6721 787.724Z" fill="#5E5A5A"/>
</g>
<g clip-path="url(#clip3_139_109)">
<path d="M72.2312 925.259L69.5538 933.366C69.7525 933.455 69.9549 933.534 70.1428 933.62C70.6991 932.482 71.2554 931.343 71.8512 930.122C70.1797 936.529 68.6813 942.886 66.8434 949.143C64.9948 955.468 61.8931 961.584 61.0302 968.018C60.284 973.589 53.7249 977.217 57.1613 983.845C59.4662 978.067 61.7278 972.275 64.076 966.512C66.184 961.33 68.3246 956.159 70.5555 951.042C70.803 950.474 71.7551 950.212 72.3785 949.817C72.5826 950.545 73.1589 951.421 72.9367 951.985C71.4852 955.724 69.7555 959.36 68.3221 963.118C67.6126 964.975 67.5209 967.072 66.8331 968.937C62.9781 979.335 59.0147 989.698 55.1272 1000.09C54.2386 1002.45 53.5342 1004.87 52.6 1007.7C47.4106 1008.06 42.5099 1005.75 37.809 1002.62C35.342 1008.53 32.8786 1014.42 30.4152 1020.32C30.2527 1020.26 30.1009 1020.21 29.9384 1020.16C31.8038 1013.38 33.6656 1006.62 35.531 999.84C35.0649 999.687 34.6061 999.511 34.1328 999.343C31.4381 1006.45 28.888 1013.62 26.0019 1020.65C24.0514 1025.39 21.6349 1029.94 19.3339 1034.54C19.0934 1035.02 18.2492 1035.17 17.1103 1035.78C17.3747 1030.87 15.6218 1026.09 20.8832 1023.08C21.4021 1022.78 20.9962 1020.88 20.1441 1019.46C18.3858 1023.18 16.6166 1026.9 14.8618 1030.61C14.4969 1030.48 14.132 1030.35 13.7779 1030.22L30.3688 979.985C30.0146 979.82 29.6569 979.666 29.3027 979.501C27.2476 982.957 25.189 986.424 22.7352 990.542C22.9178 988.715 23.0267 987.621 23.2301 985.476C20.7231 989.937 18.7008 993.513 16.4344 997.536C16.3311 996.721 16.077 996.216 16.1987 995.848C21.1154 981.689 25.9705 967.498 31.057 953.407C33.6431 946.231 36.6412 939.192 39.5164 932.124C39.943 931.087 40.4591 929.743 41.3277 929.296C42.7911 928.542 44.6446 927.916 46.1865 928.161C47.1578 928.313 47.8451 930.163 48.7725 931.395C54.0869 927.969 54.8197 921.456 57.0419 915.783C58.669 911.62 60.2312 907.436 61.8909 903.284C62.9197 900.715 63.9047 897.987 66.9907 901.855C67.5412 902.554 69.3955 902.217 71.0636 902.407C71.0967 902.634 71.044 903.158 71.2328 903.569C72.9902 907.347 68.8432 908.73 67.9954 911.479C67.5159 913.003 65.884 914.123 65.1843 915.623C63.2574 919.747 61.2909 923.881 59.7904 928.17C56.5423 937.459 53.5652 946.837 50.4797 956.179C50.8879 956.326 51.307 956.477 51.7153 956.624C56.4485 945.313 61.1817 934.002 65.904 922.688C66.4821 922.903 67.0458 923.126 67.6239 923.34L58.3745 951.346C58.5444 951.414 58.7106 951.493 58.8805 951.561C63.0647 942.75 67.2453 933.95 71.4404 925.142C71.704 925.181 71.9785 925.223 72.242 925.262L72.2312 925.259ZM66.2493 906.575C65.8195 906.457 65.3861 906.35 64.9454 906.228L60.4281 919.906C60.8508 920.046 61.2734 920.185 61.707 920.329L66.2457 906.586L66.2493 906.575Z" fill="#5E5A5A"/>
</g>
<g clip-path="url(#clip4_139_109)">
<path d="M388.794 1016.61C384.992 1017.28 382.485 1018.82 381.272 1021.23C381.584 1016.38 381.893 1011.52 382.259 1005.96C377.525 1009.74 376.394 1008.5 373.731 998.751C371.863 997.851 370.436 997.156 368.998 996.464C368.732 997.404 368.279 998.993 367.777 1000.76C366.182 998.305 364.62 995.889 363.059 993.474C362.653 993.684 362.244 993.882 361.839 994.092C361.928 996.049 362.02 998.017 362.12 999.971C361.951 1000 361.78 1000.02 361.611 1000.05C360.983 996.456 360.983 992.592 359.53 989.358C358.329 986.697 355.439 984.798 352.966 982.227C351.67 982.736 349.156 984.971 350.248 979.943C350.781 977.473 348.851 974.492 348.126 971.708C347.737 970.193 347.518 968.647 347.013 966.078C349.062 967.038 350.372 967.645 352.648 968.711C346.464 948.027 335.338 930.635 324.605 912.2C329.343 909.725 333.969 907.314 339.053 904.668C341.535 907.32 344.098 910.056 347.048 913.2C345.683 919.371 350.51 922.847 355.474 927.69C352.247 921.671 352.704 916.052 352.301 910.664C350.036 910.974 348.589 911.168 347.131 911.364C347.031 910.883 346.943 910.399 346.843 909.918C350.331 911.346 351.206 903.357 355.918 908.04C359.223 906.227 362.775 904.268 367.245 901.803C364.636 899.668 362.633 898.013 360.622 896.372C365.472 898.24 367.15 895.041 368.31 893.176C370.649 892.282 372.055 891.745 374.119 890.969C375.428 892.86 377.249 895.505 379.446 898.7C379.523 898.633 378.816 899.321 377.985 900.123C378.715 901.044 379.466 901.994 379.608 902.182C381.376 901.128 382.891 900.233 384.59 899.232C385.048 902.767 385.446 905.835 385.843 908.903C386.153 908.917 386.46 908.921 386.782 908.933C387.25 908.094 387.718 907.255 388.187 906.417C389.672 907.521 391.159 908.636 393.15 910.105C392.081 910.438 391.021 910.58 390.172 911.081C389.054 911.732 388.091 912.663 387.138 913.543C387.08 913.593 387.887 914.765 387.959 914.723C388.961 914.219 389.901 913.613 389.943 913.59C395.381 916.191 400.312 918.556 405.253 920.919C405.145 921.277 405.05 921.643 404.941 922.001C403.633 921.723 402.327 921.457 400.323 921.04C401.798 924.126 403.115 926.922 404.441 929.705C404.778 929.595 405.126 929.482 405.463 929.372C405.479 928.697 405.505 928.018 405.547 926.712C406.886 928.808 407.911 930.418 408.937 932.029C407.349 932.224 406.002 932.392 404.643 932.564C404.726 932.978 404.82 933.39 404.903 933.805C405.524 933.61 406.138 933.43 406.859 933.209C407.262 935.333 407.656 937.424 408.099 939.796C409.05 939.459 409.95 939.11 410.865 938.817C418.441 936.38 422.3 939.621 421.94 947.643C421.884 948.989 423.831 950.423 424.952 951.95C424.897 951.964 424.182 952.206 423.518 952.423C423.977 954.992 424.443 957.642 425.031 960.991C423.741 960.096 423.082 959.64 421.951 958.858C424.895 964.372 421.664 976.405 417.179 977.802C417.147 975.288 417.116 972.822 417.069 969.099C415.305 971.684 414.515 973.524 413.137 974.537C412.462 975.028 410.415 974.304 409.463 973.534C408.796 972.998 408.953 971.45 408.699 970.184C406.441 971.304 404.434 972.302 402.251 973.391C402.479 974.558 402.722 975.78 403.084 977.655C401.97 976.939 401.306 976.508 399.669 975.455C399.501 981.649 399.354 987.283 399.196 992.92C399.417 992.864 399.638 992.807 399.862 992.761C398.396 998.168 396.933 1003.59 395.752 1007.94C393.138 1007.76 391.182 1007.63 389.227 1007.49C389.272 1007.99 389.327 1008.48 389.369 1008.97C389.837 1008.63 390.314 1008.29 391.538 1007.41C391.438 1009.68 391.418 1011.44 391.268 1013.2C391.082 1015.42 390.599 1017.63 390.623 1019.84C390.645 1022.54 392.68 1021.2 393.724 1020.86C394.451 1020.61 394.865 1019.42 395.422 1018.65L396.717 1019.11C395.503 1023.52 394.289 1027.94 393.354 1031.32C390.346 1032.46 388.379 1033.2 385.992 1034.09C384.673 1033.82 382.694 1033.4 380.344 1032.92C381.536 1029.9 382.812 1026.65 384.179 1023.15C384.889 1023.39 386.156 1023.83 387.862 1024.42C388.163 1021.82 388.442 1019.47 388.771 1016.61L388.794 1016.61ZM358.411 951.658C359.661 954.695 360.804 957.454 361.95 960.224C362.422 960.091 362.895 959.958 363.367 959.825C362.946 961.123 362.538 962.43 362.128 963.725C363.332 964.194 364.431 964.619 366.096 965.277C365.008 961.031 363.917 957.281 363.103 953.46C362.482 950.532 361.308 949.489 358.414 951.669L358.411 951.658ZM374.582 906.616C375.866 910.752 377.454 914.469 382.764 914.499C379.791 911.632 377.193 909.128 374.582 906.616Z" fill="#5E5A5A"/>
<path d="M378.139 1026.98L376.475 1020.49C376.11 1020.54 375.748 1020.6 375.383 1020.64C375.655 1023.08 376.023 1025.53 376.168 1027.98C376.434 1032.33 374.302 1034.04 370.34 1032.6C367.574 1031.6 364.895 1030.39 361.757 1029.08C364.726 1025.13 368.74 1022.68 367.446 1018.22C363.503 1017.64 359.904 1017.12 356.304 1016.59C358.282 1014.83 358.618 1009.85 362.656 1013.47C363.462 1012.52 364.267 1011.57 365.419 1010.22L371.71 1008.61C372.78 1011.23 374.075 1014.39 375.645 1018.22C376.92 1016.57 377.7 1015.57 378.478 1014.56C378.899 1014.59 379.32 1014.63 379.744 1014.67C379.576 1018.71 379.409 1022.75 379.242 1026.78C378.869 1026.84 378.498 1026.92 378.125 1026.98L378.139 1026.98Z" fill="#5E5A5A"/>
<path d="M331.918 978.855C332.533 979.003 333.437 979.219 334.429 979.46C333.834 976.631 333.578 973.975 332.697 971.55C331.709 968.845 333.785 967.289 335.129 967.015C336.766 966.69 338.946 967.015 340.05 969.76C341.952 974.516 344.763 978.909 347.066 983.527C347.31 984.018 346.778 984.979 346.425 985.624C346.313 985.829 345.578 985.676 345.099 985.692C345.402 988.254 345.737 991.078 346.072 993.903C345.796 993.974 345.519 994.045 345.24 994.104C342.515 987.38 339.788 980.644 337.074 973.916C336.927 979.044 340.859 983.539 338.638 988.986C338.089 987.395 337.551 985.8 337.002 984.209C336.772 984.28 336.543 984.35 336.313 984.421L338.495 992.934C338.224 993.027 337.951 993.109 337.68 993.202C336.965 991.194 336.504 989.026 335.419 987.23C334.888 986.353 333.207 986.183 332.402 985.847C332.256 983.669 332.087 981.215 331.929 978.852L331.918 978.855Z" fill="#5E5A5A"/>
<path d="M407.983 983.116C408.348 983.848 408.967 985.068 409.107 985.338C412.048 986.47 414.267 987.268 416.429 988.21C416.682 988.322 416.595 989.181 416.668 989.693C417.126 992.862 413.964 994.545 412.632 994.085C409.953 993.145 407.513 998.201 404.762 993.674C403.093 990.932 401.865 988.62 403.385 985.909C404.081 984.67 406.124 984.182 407.972 983.119L407.983 983.116Z" fill="#5E5A5A"/>
<path d="M366.096 875.846C367.199 878.497 368.306 881.159 369.519 884.1C369.958 882.503 370.264 881.4 370.568 880.285C370.048 883.222 374.26 885.407 371.763 888.627C370.081 890.802 367.903 891.82 366.831 889.75C364.412 885.091 364.66 880.267 366.085 875.849L366.096 875.846Z" fill="#5E5A5A"/>
<path d="M343.819 1010.03C344.694 1009.9 346.234 1009.62 346.254 1009.69C346.775 1011.73 347.122 1013.82 347.511 1015.89C347.146 1015.98 346.77 1016.08 346.402 1016.16C345.948 1015.07 345.493 1013.99 344.827 1012.4C344.135 1013.79 343.615 1014.85 343.205 1015.68C342.092 1014.33 341.013 1013.02 339.692 1011.4C340.433 1011.26 341.196 1011.11 342.352 1010.88C342.224 1009.42 342.087 1007.83 341.965 1006.24C342.141 1006.2 342.318 1006.15 342.495 1006.11C342.963 1007.47 343.43 1008.84 343.842 1010.03L343.819 1010.03Z" fill="#5E5A5A"/>
</g>
<path d="M759.738 463.505L869.799 602.529V611.035C869.799 617.414 865.549 621.666 861.299 625.919L818.799 653.561L842.174 676.951C848.549 683.33 850.674 691.835 846.424 700.341L657.299 1142.62V1410.54L636.049 1555.13L614.799 1412.66V1142.62L427.799 700.341C423.549 691.835 425.674 683.33 432.049 676.951L455.424 653.561L412.924 625.919L412.924 625.919C408.674 621.666 404.424 617.414 404.424 611.035V602.529L495.908 463.506C500.158 459.253 506.533 455 512.908 455L561.674 521.729L636.049 1000.15L710.424 521.729L742.738 455C749.113 455 755.488 459.253 759.738 463.505Z" fill="#729DB5"/>
<path d="M545.957 538.892C545.957 543.935 541.869 548.024 536.826 548.024C531.783 548.024 527.695 543.935 527.695 538.892C527.695 533.849 531.783 529.761 536.826 529.761C541.869 529.761 545.957 533.849 545.957 538.892Z" fill="#D9D9D9"/>
<circle cx="560.795" cy="710.672" r="9.13114" fill="#D9D9D9"/>
<circle cx="589.33" cy="885.305" r="9.13114" fill="#D9D9D9"/>
<defs>
<clipPath id="clip0_139_109">
<rect width="105.107" height="40.52" fill="white" transform="translate(521.949 463.567) rotate(-122.41)"/>
</clipPath>
<clipPath id="clip1_139_109">
<rect width="67" height="27.2467" fill="white" transform="translate(518.844 289.061) rotate(2)"/>
</clipPath>
<clipPath id="clip2_139_109">
<rect width="153.963" height="83.9266" fill="white" transform="translate(74.0295 766.539) rotate(-39.897)"/>
</clipPath>
<clipPath id="clip3_139_109">
<rect width="143.895" height="40.12" fill="white" transform="translate(4.4043 1031.56) rotate(-71.7233)"/>
</clipPath>
<clipPath id="clip4_139_109">
<rect width="158.243" height="98.0571" fill="white" transform="translate(403.003 866.388) rotate(75.6267)"/>
</clipPath>
</defs>
</svg>
