<?xml version="1.0" encoding="UTF-8"?>
<svg id="Layer_1" data-name="Layer 1" xmlns="http://www.w3.org/2000/svg" viewBox="0 0 444.3 363.13">
  <defs>
    <style>
      .cls-1 {
        fill: #000;
        stroke-width: 0px;
      }
    </style>
  </defs>
  <polygon class="cls-1" points="442.83 157.58 433.7 159.92 439.2 162.55 442.57 165.08 438.18 167.27 441.33 169.79 433.7 171.82 438.03 174.4 436.21 176.7 436.65 179.11 432.16 181.28 436.85 183.88 432.93 186.08 435.72 188.59 435.05 190.94 436.82 193.41 437.18 195.8 437.46 198.19 440.51 200.71 434.89 202.84 434.23 205.19 437.85 207.74 433.03 209.9 432.41 212.25 435.41 214.77 432.08 217.01 435.61 219.55 432.85 221.81 435.34 224.31 434.69 226.66 429.97 228.84 434.69 231.43 433.35 233.76 433.4 236.14 433.29 238.53 437.23 241.09 430.55 243.18 436.4 246.16 435.32 248.7 431.04 249.83 427.51 251.21 426.77 253.52 426.68 256.05 425.62 258.25 431.51 262.77 424.91 263.13 422.79 264.97 430.67 270.16 429.04 272.17 423.25 272.8 425.08 275.97 421.87 277.46 418.81 278.99 423.17 283.01 424.86 286.13 420.76 287.33 416.52 288.47 421.67 292.75 420.44 294.9 416.84 296.26 420.95 300.19 417.63 301.65 415.56 303.52 410.69 304.46 414.84 308.41 414.21 311 407.63 309.92 413.48 316.53 409.8 317.05 406.66 317.91 405.42 319.99 403.34 321.54 407.08 326.8 406.32 329.19 401.71 329.11 400.97 331.51 395.82 331.1 393.77 332.66 394.38 335.93 393.4 338.18 389.8 338.75 388.27 340.65 392.64 346.31 386.97 345.57 383.66 346.33 386.28 350.88 387.59 354.6 382.53 354.25 385.52 359.04 382.14 355.55 380.11 356.93 376.74 354.81 382.43 351.94 380.68 349.68 382.14 347.17 382.92 344.7 375.67 342.89 377.44 340.35 376.73 338.01 383.86 335.04 384.07 332.62 376 330.88 383.57 327.86 378.65 325.86 376.69 323.62 375.03 321.35 381.38 318.44 377.93 316.32 377.72 313.94 372.49 311.96 379.49 309 377.01 306.8 374.03 304.64 377.11 302 371.63 300.04 379.51 297 375.3 294.94 380.02 292.15 377.34 289.97 379.17 287.42 370.92 285.69 370.89 283.29 372.58 280.75 371.61 278.43 371.54 276.04 378.33 273.09 374.53 270.99 373.48 268.67 369.2 266.61 369.82 264.16 372.61 261.54 371.27 259.24 374.02 256.62 369.62 254.57 370.72 252.08 376.55 249.21 371.31 247.23 370.83 244.86 372.33 242.34 370.36 240.09 367.13 237.95 370.09 235.31 373.85 232.6 373.4 230.24 366.07 228.42 370.23 225.68 367.63 223.49 374.77 220.51 369.55 218.52 370.38 216.05 370.04 213.68 366.01 211.6 368.06 209.03 368.31 206.61 366.27 204.38 372.6 201.46 365.77 199.61 364.47 197.31 366.98 194.7 370.8 191.99 370.99 189.57 362.76 187.83 368.39 184.97 370.88 182.36 371.05 179.94 367.4 177.83 371.37 175.1 365.01 173.21 364.66 170.83 370.79 167.93 370.65 165.53 361.27 163.88 360.51 161.52 362.2 159.98 363.49 163.98 360.87 162.75 357.87 158.75 356.22 164.27 353.28 160.37 350.88 160.44 348.83 163.36 346.15 161.11 343.7 160.63 341.54 162.86 339.2 163.4 337.11 166.52 333.96 158.92 331.93 162.76 329.77 165.32 326.88 159.75 325.01 165.88 322.45 163.94 320.13 164.89 317.58 162.85 314.95 159.56 312.8 162.97 310.5 164.32 308.19 165.61 306.02 169.35 303.6 169.11 300.93 164.4 298.38 161.42 296.07 162.86 294.06 170.38 291.3 162.87 289.02 165.23 286.78 168.77 284.37 168.46 281.86 165.75 279.59 168.86 277.09 165.68 274.86 170.49 272.23 163.14 269.86 163.55 267.66 170.28 265.27 170.28 262.77 166.01 260.37 165.59 257.96 164.45 255.62 166.94 253.2 165.63 250.8 164.93 248.42 164.91 246.01 163.7 243.61 162.19 241.23 162.38 238.86 164.83 236.47 164.67 234.08 164.02 231.7 165.44 229.31 171.26 226.91 162.45 224.52 164.29 222.12 168.29 219.73 167.5 217.35 164.34 214.95 166.32 212.56 166.24 210.18 164.49 207.72 169.92 205.39 164.55 202.93 169.72 200.52 170.24 198.15 168 195.86 162.25 193.35 168.43 190.88 171.45 188.61 165.44 186.27 162.96 183.69 170.76 181.4 166.23 179.01 166.01 176.59 166.89 174.13 168.91 171.93 162.19 169.55 161.81 166.92 169.04 164.66 164.85 162.12 168.67 159.85 165.2 157.25 170.55 154.96 167.69 152.56 167.6 150.31 164.1 147.66 169.81 145.36 167.56 143.25 161.56 140.52 168.28 138.29 164.92 135.82 166.34 133.58 163.44 131.39 159.71 128.75 164.08 126.55 160.74 123.81 166.74 121.54 164.51 119.09 165.42 116.55 167.69 114.63 160.41 112.3 159.62 109.68 162.92 106.93 167.83 104.56 167.31 102.58 161.61 100.32 159.86 97.38 166.85 95.48 160.7 93.06 160.92 90.2 166.43 88.31 160.54 86.22 157.13 83.68 158.89 83.37 161.87 83.59 163.54 80.71 165.51 80.62 167.91 76.73 169.73 76.32 172.09 76.21 174.48 81.21 177.66 78.57 179.67 74.23 181.41 78.82 184.53 79.97 187.12 76.66 189.03 77.81 191.63 73.7 193.41 76.11 196.2 75.58 198.54 70.34 200.15 74.13 203.15 73.48 205.46 77.62 208.51 74.43 210.43 76.36 213.14 69.78 214.55 73.38 217.52 70.9 219.55 74.05 222.45 73.12 224.73 68.66 226.46 71.73 229.36 72 231.81 74.62 234.63 70 236.34 70.82 238.88 73.58 241.72 68.71 243.39 65.11 245.25 65.36 247.71 70.57 250.93 69.62 253.21 68.84 255.51 69.34 258 69.09 260.38 67.48 262.55 63.37 264.34 64.88 266.99 61.71 268.92 60.31 271.13 61.3 273.7 59.88 275.9 58.51 278.11 65.73 281.64 61.19 283.36 59.53 285.52 57.56 287.64 60.92 290.58 64.87 293.61 60.64 295.38 57.59 297.33 61.17 300.3 54.43 301.69 54.39 304.1 62.68 307.79 57.95 309.48 58.86 312.04 57.5 314.25 53.12 316 56.72 318.97 59.86 321.87 58.42 324.07 60.05 326.75 54.04 328.24 54.66 330.76 56.9 333.53 51.34 335.1 55.57 338.17 55.04 340.51 53.82 342.75 52.66 344.99 53.86 347.6 53.62 349.99 50.92 352 53.4 354.8 47.64 356.35 51.02 361.65 53.54 355.2 46.69 355.86 46.07 353.53 45.13 351.35 41.71 350.36 45.82 345.76 44.69 343.66 45.04 340.87 43.6 338.92 44.21 336 39.33 335.71 40.31 332.61 37.77 331.21 38.28 328.33 31.21 329.09 32.49 325.85 29.1 324.85 32.67 320.51 27.7 320.26 31.9 315.62 25.1 316.25 28.71 311.89 23.48 311.76 22.99 309.37 28.06 304.3 21.4 304.86 25.18 300.41 20.23 300.16 25.05 295.2 19.28 295.35 17.89 293.38 19.4 290.01 15.91 289.06 15.83 286.46 10.55 286.35 14.26 282.07 17.02 279.61 9.44 277.67 16.75 274.81 12.59 272.65 14.22 270.14 14.3 267.72 11.73 265.46 16.33 262.76 10.2 260.72 13.53 258.11 10.45 255.88 7.52 253.65 9.08 251.14 15.39 248.33 12.55 246.09 7.15 244.01 10.91 241.36 10.57 238.97 7.55 236.74 7.22 234.34 14.11 231.5 7.97 229.47 6.91 227.12 10.72 224.47 12.94 221.91 13.47 219.46 9.26 217.31 13.09 214.65 4.62 212.76 12.5 209.86 10.71 207.55 13.58 204.95 5.77 203.02 12.28 200.21 7.37 198.1 9.92 195.52 13.03 192.92 4.84 191.01 12.52 188.12 4.82 186.17 7.29 183.6 6.52 181.23 5.44 178.88 7.68 176.32 6.28 173.99 5.25 171.63 4.06 169.29 9.92 166.51 5.47 164.36 11.12 161.6 8.77 159.32 7.42 156.98 1.54 154.91 1.5 151.94 10.06 150.74 9.67 148.23 10.33 145.94 8.91 143.21 6.36 140.25 4.6 137.45 5.42 135.2 10.46 133.82 9.43 131.18 11.78 129.24 10.88 126.62 9.15 123.83 10.54 121.69 11.78 119.52 14.34 117.62 13.51 115.02 9.77 111.81 17.77 111.06 18.21 108.72 14.37 105.49 17.21 103.65 14.01 100.56 18.87 99.14 15.7 96.05 16.22 93.73 22.7 92.65 20.75 89.81 17.23 86.64 23.34 85.49 18.73 82.09 21.3 80.2 18.75 77.23 21.56 75.39 23.6 73.38 25.37 71.32 22.15 68.21 18.88 65.08 20.37 61.14 26.33 62.72 26.89 59.08 31.98 62.59 32.09 58.25 31.94 53.51 34.87 53.6 38.81 55.28 38.46 50.23 44.67 55.47 45.78 52.72 48.63 52.71 50.19 50.64 48.5 43.48 53 46.06 55.76 45.89 54.14 38.84 59.43 42.65 60.09 39.18 62.82 38.95 63.64 35.74 65.27 33.79 66.86 31.78 69.22 30.97 71.95 30.75 77.04 34.23 76.62 29.06 80.13 30.06 81.2 27.23 82.41 24.61 84.85 23.94 86.18 21.51 90.52 23.82 91.56 20.93 92.76 18.29 95.58 18.16 97.48 15.14 99.8 14.52 102.26 14.64 105.2 17.46 107.32 15.74 109.82 16.07 111.28 10.75 114.88 17.18 117.52 18.33 119.91 18.09 121.39 12.86 124.01 13.86 127.06 17.28 127.98 8.93 131.83 16.73 133.22 11 135.55 10.4 138.26 11.89 140.76 12.28 141.9 5.13 145.69 12.58 148.25 13.28 149.36 5.96 151.99 7.02 154.69 8.45 156.24 3.58 159.23 6.6 161.68 6.75 164.02 5.28 166.33 9.44 168.77 6.57 171.19 4.79 173.55 6.69 175.97 3.68 178.34 6.57 180.72 8.32 183.12 6.33 185.51 9.41 187.9 8.75 190.28 3.7 192.69 10.02 195.09 10.94 197.44 3.06 199.82 2.58 202.25 7.89 204.66 9.74 207.06 10.78 209.37 4.03 211.73 1.59 214.21 9.6 216.51 2.03 218.96 7.65 221.36 8.57 223.7 4.6 226.13 7.78 228.55 9.98 230.84 1.94 233.32 9.53 235.62 2.08 238.01 1.42 240.48 9.3 242.85 7.46 245.22 5.81 247.61 5.65 250.03 8.88 252.38 4.24 254.8 7.48 257.2 9.05 259.57 6.66 261.96 4.46 264.35 2.34 266.74 1.95 269.14 2.63 271.54 8.68 273.94 5.54 276.32 9.22 278.7 9.85 281.12 6.61 283.48 10.4 285.95 2.17 288.32 4.66 290.71 5.79 293.07 7.65 295.44 9.05 297.99 1.44 300.18 10.69 302.67 6.59 305.07 6.34 307.34 10.4 310.02 1.73 312.34 4.13 314.59 7.89 317.24 1.9 319.33 8.91 322.03 2.69 324.35 4.34 326.69 5.56 328.82 9.96 331.68 2.75 333.61 9.73 336.14 7.82 338.59 7.34 340.67 11.15 343.36 7.73 345.91 6.25 348.54 4.1 350.23 11.06 353.36 4.51 354.68 13.94 357.17 13.01 359.38 14.33 362.32 10.39 364.35 12.91 368.15 9.61 368.08 13.6 373.29 11.56 374.57 13.69 375.95 15.73 372.91 22.45 374.74 24.01 376.7 25.41 382.53 22.7 382 26.76 381.38 30.9 387.23 28.17 390.27 28.44 391.64 30.48 393.71 31.78 394.64 34.28 393.54 38.93 396.58 39.21 396.46 42.83 401.31 41.18 400.79 45.23 405.45 43.77 405.94 46.75 408.34 47.7 410.87 48.52 408.8 54.21 411.57 54.77 415.53 54.06 416.31 56.73 415.63 60.95 422.78 56.86 424.04 59.02 419.8 67.03 424.17 65.9 424.38 69.19 424.91 70.33 423.48 71.69 424.82 73.97 424.98 76.39 428.18 78.46 433.52 80.3 431.39 82.97 431.79 85.36 430.07 87.99 429.48 90.49 426.84 93.22 435.63 94.67 430.27 97.71 433.84 99.74 430.97 102.5 435.47 104.43 432.58 107.18 436.23 109.2 436.83 111.57 433.18 114.41 434.34 116.72 430.26 119.61 437.25 121.26 435.94 123.84 431.02 126.83 431.94 129.16 433.87 131.38 434.92 133.7 436.96 135.91 440.41 137.96 432.76 141.26 432.61 143.71 439.47 145.37 435.61 148.25 435.64 150.69 437.01 152.97 437.21 156.03 442.83 157.58"/>
</svg>