<svg width="1514" height="1483" viewBox="0 0 1514 1483" fill="none" xmlns="http://www.w3.org/2000/svg">
<g clip-path="url(#clip0_142_173)">
<path d="M904.664 31L843.5 5.5L868.55 35.8162L904.664 48L858.92 57.489L904.664 68.5L851.697 76.7537L950.408 96.0185L897.441 108.059L969.669 122.507L919.109 139.364L1022 155.5L938.37 182.71H1128.5L950.408 204.383L1212.84 214.015L919.109 226.055L1277.84 238.096L897.441 254.952L1330.81 266.993L923.925 288.666L1347.66 307.93L933.555 319.971L1362.11 348.868L916.702 356.092L1378.96 394.622L897.441 406.662L1405.44 442.784L870.958 462.048L1427.11 507.802L839.659 517.434L1441.56 560.78L817.99 580.045C817.99 580.045 1463.23 580.045 1458.41 580.045C1453.6 580.045 33.1139 601.718 33.1139 601.718L1477.67 628.207C1477.67 628.207 18.6683 623.39 23.4835 628.207C30.7063 633.023 1477.67 661.92 1477.67 661.92C1477.67 661.92 1359.7 661.92 1188.76 661.92C762.616 661.92 21.0759 661.92 23.4835 661.92C33.1139 661.92 302.765 707.674 302.765 707.674H23.4835L281.096 746.203L23.4835 760.652L273.874 758.243L23.4835 799.181L273.874 811.221L33.1139 835.302L273.874 881.056H33.1139L273.874 924.402C273.874 924.402 45.1519 955.707 33.1139 955.707C21.0759 955.707 273.874 965.339 273.874 965.339L-3 1006.28H259.428L35.5215 1054.44L276.281 1085.74C276.281 1085.74 23.4835 1114.64 35.5215 1114.64C47.5595 1114.64 276.281 1136.31 276.281 1136.31L35.5215 1167.62L276.281 1198.92L35.5215 1213.37L276.281 1247.09L35.5215 1273.57L276.281 1307.29L35.5215 1326.55C35.5215 1326.55 278.689 1350.63 276.281 1350.63C273.874 1350.63 35.5215 1381.94 35.5215 1381.94L276.281 1406.02L35.5215 1430.1L271.466 1444.55H40.3367" stroke="black" stroke-width="30" stroke-miterlimit="10"/>
<path d="M1193.87 659.275L1477.96 702.621L1210.72 707.437L1475.55 750.783L1227.57 772.456L1477.96 801.353L1237.2 844.698L1477.96 873.596L1239.61 883.228L1480.37 914.533C1480.37 914.533 1270.91 941.022 1258.87 941.022C1246.83 941.022 1502.04 986.776 1497.22 986.776C1492.41 986.776 1225.16 1010.86 1225.16 1010.86L1477.96 1054.2L1242.02 1071.06C1242.02 1071.06 1494.82 1114.4 1490 1114.4C1485.19 1114.4 1222.76 1164.97 1222.76 1164.97L1482.78 1186.65L1237.2 1222.77C1237.2 1222.77 1485.19 1244.44 1480.37 1244.44C1475.55 1244.44 1239.61 1280.56 1239.61 1280.56L1485.19 1299.83C1485.19 1299.83 1229.98 1326.32 1234.8 1326.32C1239.61 1326.32 1477.96 1350.4 1477.96 1350.4L1244.43 1372.07L1485.19 1386.52L1227.57 1410.6H1480.37L1225.16 1444.31L1465.92 1449.13" stroke="black" stroke-width="30" stroke-miterlimit="10" stroke-linecap="round"/>
<path d="M719.57 599.073L813.466 570.176L693.086 558.136L813.466 541.279L688.271 512.382L823.096 485.893L671.418 464.22L835.134 432.915L669.01 423.283L839.95 384.753L664.195 382.345C664.195 382.345 856.803 351.04 849.58 351.04C842.357 351.04 656.972 331.775 656.972 331.775L851.988 307.694L654.565 290.838C654.565 290.838 861.618 266.757 859.21 266.757C856.803 266.757 640.119 242.676 642.527 240.268C644.934 237.86 866.433 221.003 866.433 221.003L635.304 194.514L866.433 175.249L632.896 160.801C632.896 160.801 876.064 139.128 873.656 136.72C871.248 136.72 630.489 124.679 630.489 124.679L888.102 107.823L623.266 100.598L664.195 81.3338L577.522 76.5176L649.749 42.8043L616.043 21.1315L640.119 11.4991L599.19 45.2124L656.972 59.661L563.076 93.3742L613.636 107.823L543.815 122.271L594.375 134.312L445.104 163.209L565.484 170.433L370.468 189.698L560.668 206.555L298.24 216.187L604.005 235.452L238.05 237.86L606.413 266.757L177.861 269.165L575.114 293.246L163.415 310.102L577.522 329.367L156.192 353.448L596.782 375.121L134.524 387.161L616.043 416.058L117.671 428.099L635.304 459.404L103.225 469.036L649.749 490.709L91.187 502.75L669.01 534.055C669.01 534.055 67.1111 543.687 76.7415 543.687C86.3719 543.687 683.456 565.36 683.456 565.36L64.7035 574.992" stroke="black" stroke-width="30" stroke-miterlimit="10"/>
<path d="M731.608 644.827L1172.2 676.132L339.169 685.765L1167.38 714.662L346.392 729.11L1162.57 755.599C1162.57 755.599 348.8 770.048 353.615 770.048C358.43 770.048 1155.34 815.802 1155.34 815.802C1155.34 815.802 356.022 815.802 360.838 815.802C365.653 815.802 1150.53 849.515 1150.53 849.515C1150.53 849.515 356.022 844.699 365.653 849.515C375.283 854.331 1143.31 902.493 1143.31 902.493H372.876L1148.12 948.247L368.06 941.022L1150.53 984.368L363.245 979.552L1152.94 1022.9L358.43 1018.08L1157.75 1063.84L356.022 1054.2L1162.57 1102.36L353.615 1083.1C353.615 1083.1 1179.42 1131.26 1164.97 1131.26C1150.53 1131.26 303.055 1131.26 348.8 1131.26C394.544 1131.26 1196.27 1181.83 1184.24 1181.83C1172.2 1181.83 317.501 1169.79 324.724 1172.2C331.946 1174.61 1174.61 1220.36 1174.61 1220.36C1174.61 1220.36 331.947 1208.32 341.577 1210.73C351.207 1213.14 1179.42 1258.89 1179.42 1258.89L339.169 1249.26L1184.24 1299.83L334.354 1287.79L1181.83 1333.54L331.946 1328.73L709.939 1345.58L1172.2 1369.66H1181.83L784.575 1391.34H772.537L1063.86 1415.42L1205 1421C1205 1421 782.167 1449.13 784.575 1444.31C789.39 1441.91 767.721 1355.21 767.721 1355.21L731.608 1352.81L724.385 1391.34L714.754 1441.91C714.754 1441.91 317.501 1421 324.724 1421C331.946 1421 709.939 1384.11 709.939 1384.11L317.501 1360.03L695.494 1350.4" stroke="black" stroke-width="30" stroke-miterlimit="10"/>
</g>
<defs>
<clipPath id="clip0_142_173">
<rect width="1514" height="1483" fill="white"/>
</clipPath>
</defs>
</svg>
