<?xml version="1.0" encoding="utf-8"?>
<!-- Generator: Adobe Illustrator 28.3.0, SVG Export Plug-In . SVG Version: 6.00 Build 0)  -->
<svg version="1.1" id="Layer_1" xmlns="http://www.w3.org/2000/svg" xmlns:xlink="http://www.w3.org/1999/xlink" x="0px" y="0px"
	 viewBox="0 0 62.8 60.7" style="enable-background:new 0 0 62.8 60.7;" xml:space="preserve">
<style type="text/css">
	.st0{fill:none;stroke:#000000;stroke-linejoin:bevel;stroke-miterlimit:10;}
	.st1{fill:none;stroke:#000000;stroke-linecap:round;stroke-linejoin:bevel;stroke-miterlimit:10;}
</style>
<path class="st0" d="M25.1,1.2l1.5,0.2l-2.1,0.6L27,2.3l-3,0.5l3.3,0.3l-4.1,0.8l2.2,0.5l-3,0.6l2.1,0.7l-5.3,0.7l4.5,1.1l-8,0.1
	l7.5,0.8L12.3,8.8l12.2,0.5L9.6,9.8l15.8,0.7l-18,0.5l16.9,0.9L6.7,12.7l17.2,0.5L6.1,14.4l18.5,0.3L5.4,16.3l20,0.5L4.3,18.3
	l22.2,0.8L3.4,21l24.4,0.4L2.8,23.2L28.7,24c0,0-26.8,0-26.6,0s59.2,0.9,59.2,0.9L1.3,26c0,0,60.6-0.2,60.4,0
	c-0.3,0.2-60.4,1.4-60.4,1.4s4.9,0,12,0c17.7,0,48.5,0,48.4,0c-0.4,0-11.6,1.9-11.6,1.9h11.6L51,30.9l10.7,0.6l-10.4-0.1l10.4,1.7
	l-10.4,0.5l10,1c0,0-10,1.9-10,1.9c0,0,10,0,10,0l-10,1.8c0,0,9.5,1.3,10,1.3s-10,0.4-10,0.4l11.5,1.7H51.9l9.3,2l-10,1.3
	c0,0,10.5,1.2,10,1.2s-10,0.9-10,0.9l10,1.3l-10,1.3l10,0.6l-10,1.4l10,1.1l-10,1.4l10,0.8c0,0-10.1,1-10,1s10,1.3,10,1.3l-10,1
	l10,1l-9.8,0.6h9.6"/>
<path class="st1" d="M13.1,27.3L1.3,29.1l11.1,0.2l-11,1.8l10.3,0.9L1.3,33.2l10,1.8l-10,1.2l9.9,0.4l-10,1.3c0,0,8.7,1.1,9.2,1.1
	s-10.1,1.9-9.9,1.9s11.3,1,11.3,1L1.3,43.7l9.8,0.7c0,0-10.5,1.8-10.3,1.8s11.1,2.1,11.1,2.1L1.1,49.2l10.2,1.5
	c0,0-10.3,0.9-10.1,0.9s10,1.5,10,1.5L1,53.9c0,0,10.6,1.1,10.4,1.1c-0.2,0-10.1,1-10.1,1l9.7,0.9L1,57.5l10.7,1H1.2l10.6,1.4
	l-10,0.2"/>
<path class="st0" d="M32.8,24.8l-3.9-1.2l5-0.5l-5-0.7l5.2-1.2l-5.6-1.1l6.3-0.9L28,17.9l6.9-0.4l-7.1-1.6l7.3-0.1
	c0,0-8-1.3-7.7-1.3c0.3,0,8-0.8,8-0.8l-8.1-1l8.2-0.7c0,0-8.6-1-8.5-1c0.1,0,9.1-1,9-1.1s-9.3-0.8-9.3-0.8l9.6-1.1l-9.6-0.8l9.7-0.6
	c0,0-10.1-0.9-10-1c0.1,0,10.1-0.5,10.1-0.5L25.8,4.4l11-0.3l-1.7-0.8l3.6-0.2l-3-1.4l1.4-0.9l-1-0.4l1.7,1.4l-2.4,0.6l3.9,1.4
	l-2.1,0.6L40.1,5L38,5.5l6.2,1.2l-5,0.3l8.1,0.8l-7.9,0.7l10.9,0.4L37.6,9.7l15.2,0.1L37.5,11l17.8,0.1l-16.5,1l17.1,0.7l-17.2,0.8
	l17.5,1l-18.3,0.9L57.1,16l-20,1.2l20.7,0.5l-21.5,1.3l22.1,0.4l-22.7,0.9l23.2,0.5l-24,1.3c0,0,25,0.4,24.6,0.4s-25.2,0.9-25.2,0.9
	L60,23.8"/>
<path class="st0" d="M32.3,26.7L14,28l34.6,0.4l-34.4,1.2l34.1,0.6l-33.9,1.1c0,0,33.8,0.6,33.6,0.6c-0.2,0-33.3,1.9-33.3,1.9
	s33.2,0,33,0c-0.2,0-32.8,1.4-32.8,1.4s33-0.2,32.6,0c-0.4,0.2-32.3,2.2-32.3,2.2h32l-32.2,1.9l32.4-0.3l-32.5,1.8l32.7-0.2
	l-32.8,1.8l33-0.2l-33.2,1.9l33.3-0.4l-33.5,2L48,44.9c0,0-34.3,2-33.7,2c0.6,0,35.8,0,33.9,0c-1.9,0-35.2,2.1-34.7,2.1
	s36-0.5,35.7-0.4c-0.3,0.1-35.3,2-35.3,2s35-0.5,34.6-0.4s-34.8,2-34.8,2l34.9-0.4l-35.1,2.1l35.3-0.5l-35.2,1.9l35.3-0.2l-15.7,0.7
	L14,56.8l-0.4,0l16.5,0.9l0.5,0l-12.1,1L14,58.6c0,0,16.2,1.5,16.1,1.3c-0.2-0.1,0.7-3.7,0.7-3.7l1.5-0.1l0.3,1.6l0.4,2.1
	c0,0,16.6-2,16.3-2s-16.1-0.4-16.1-0.4l16.3-1l-15.7-0.4"/>
</svg>
