<svg width="465" height="59" viewBox="0 0 465 59" fill="none" xmlns="http://www.w3.org/2000/svg">
<path d="M56.8672 57H45.6953V17C45.6953 16.2188 45.5391 15.4896 45.2266 14.8125C44.9401 14.1354 44.5365 13.5495 44.0156 13.0547C43.5208 12.5339 42.9349 12.1302 42.2578 11.8438C41.5807 11.5573 40.8516 11.4141 40.0703 11.4141C39.2891 11.4141 38.5599 11.5573 37.8828 11.8438C37.2057 12.1302 36.6068 12.5339 36.0859 13.0547C35.5911 13.5495 35.2005 14.1354 34.9141 14.8125C34.6276 15.4896 34.4844 16.2188 34.4844 17V57H23.2734V17C23.2734 16.2188 23.1302 15.4896 22.8438 14.8125C22.5573 14.1354 22.1536 13.5495 21.6328 13.0547C21.138 12.5339 20.5521 12.1302 19.875 11.8438C19.1979 11.5573 18.4688 11.4141 17.6875 11.4141C16.9062 11.4141 16.1771 11.5573 15.5 11.8438C14.8229 12.1302 14.224 12.5339 13.7031 13.0547C13.2083 13.5495 12.8177 14.1354 12.5312 14.8125C12.2448 15.4896 12.1016 16.2188 12.1016 17V57H0.890625V17C0.890625 14.6823 1.32031 12.5078 2.17969 10.4766C3.0651 8.41927 4.26302 6.63542 5.77344 5.125C7.3099 3.58854 9.09375 2.39062 11.125 1.53125C13.1823 0.645833 15.3698 0.203125 17.6875 0.203125C19.7708 0.203125 21.776 0.580729 23.7031 1.33594C25.6302 2.0651 27.362 3.13281 28.8984 4.53906C30.4349 3.13281 32.1536 2.0651 34.0547 1.33594C35.9818 0.580729 37.987 0.203125 40.0703 0.203125C42.388 0.203125 44.5625 0.645833 46.5938 1.53125C48.651 2.39062 50.4349 3.58854 51.9453 5.125C53.4818 6.63542 54.6797 8.41927 55.5391 10.4766C56.4245 12.5078 56.8672 14.6823 56.8672 17V57Z" fill="black"/>
<path d="M99.875 34.6172V23.4062C99.875 21.8698 99.5755 20.4245 98.9766 19.0703C98.4036 17.6901 97.6094 16.4922 96.5938 15.4766C95.5781 14.4609 94.3802 13.6667 93 13.0938C91.6458 12.4948 90.2005 12.1953 88.6641 12.1953C87.1276 12.1953 85.6693 12.4948 84.2891 13.0938C82.9349 13.6667 81.75 14.4609 80.7344 15.4766C79.7188 16.4922 78.9115 17.6901 78.3125 19.0703C77.7396 20.4245 77.4531 21.8698 77.4531 23.4062V34.6172H99.875ZM111.086 57H99.875V45.7891H77.4531V57H66.2812V23.4062C66.2812 20.3073 66.8672 17.4036 68.0391 14.6953C69.2109 11.9609 70.7995 9.57812 72.8047 7.54688C74.8359 5.51562 77.2057 3.91406 79.9141 2.74219C82.6484 1.57031 85.5651 0.984375 88.6641 0.984375C91.763 0.984375 94.6667 1.57031 97.375 2.74219C100.109 3.91406 102.492 5.51562 104.523 7.54688C106.555 9.57812 108.156 11.9609 109.328 14.6953C110.5 17.4036 111.086 20.3073 111.086 23.4062V57Z" fill="black"/>
<path d="M132.023 12.1953V34.6172H143.234C144.771 34.6172 146.216 34.3307 147.57 33.7578C148.924 33.1589 150.109 32.3516 151.125 31.3359C152.141 30.3203 152.935 29.1354 153.508 27.7812C154.107 26.401 154.406 24.9427 154.406 23.4062C154.406 21.8698 154.107 20.4245 153.508 19.0703C152.935 17.6901 152.141 16.4922 151.125 15.4766C150.109 14.4609 148.924 13.6667 147.57 13.0938C146.216 12.4948 144.771 12.1953 143.234 12.1953H132.023ZM132.023 57H120.812V0.984375H143.234C145.292 0.984375 147.271 1.25781 149.172 1.80469C151.073 2.32552 152.844 3.08073 154.484 4.07031C156.151 5.03385 157.661 6.20573 159.016 7.58594C160.396 8.9401 161.568 10.4505 162.531 12.1172C163.521 13.7839 164.276 15.5677 164.797 17.4688C165.344 19.3698 165.617 21.349 165.617 23.4062C165.617 25.3333 165.37 27.2083 164.875 29.0312C164.406 30.8542 163.716 32.5859 162.805 34.2266C161.919 35.8672 160.826 37.3776 159.523 38.7578C158.221 40.138 156.763 41.3359 155.148 42.3516L161.359 57H149.445L144.562 45.7109L132.023 45.7891V57Z" fill="black"/>
<path d="M217.727 51.2578C215.122 53.4974 212.206 55.2161 208.977 56.4141C205.747 57.612 202.401 58.2109 198.938 58.2109C196.281 58.2109 193.716 57.8594 191.242 57.1562C188.794 56.4792 186.49 55.5156 184.328 54.2656C182.193 52.9896 180.24 51.4661 178.469 49.6953C176.698 47.9245 175.174 45.9714 173.898 43.8359C172.648 41.6745 171.672 39.3698 170.969 36.9219C170.292 34.4479 169.953 31.8828 169.953 29.2266C169.953 26.5703 170.292 24.0052 170.969 21.5312C171.672 19.0573 172.648 16.7526 173.898 14.6172C175.174 12.4557 176.698 10.4896 178.469 8.71875C180.24 6.94792 182.193 5.4375 184.328 4.1875C186.49 2.91146 188.794 1.9349 191.242 1.25781C193.716 0.554688 196.281 0.203125 198.938 0.203125C202.401 0.203125 205.747 0.802083 208.977 2C212.206 3.17188 215.122 4.89062 217.727 7.15625L211.789 16.9219C210.148 15.151 208.208 13.7969 205.969 12.8594C203.729 11.8958 201.385 11.4141 198.938 11.4141C196.464 11.4141 194.146 11.8828 191.984 12.8203C189.823 13.7578 187.935 15.0339 186.32 16.6484C184.706 18.237 183.43 20.125 182.492 22.3125C181.555 24.474 181.086 26.7786 181.086 29.2266C181.086 31.6745 181.555 33.9792 182.492 36.1406C183.43 38.276 184.706 40.151 186.32 41.7656C187.935 43.3802 189.823 44.6562 191.984 45.5938C194.146 46.5312 196.464 47 198.938 47C201.385 47 203.729 46.5312 205.969 45.5938C208.208 44.6302 210.148 43.263 211.789 41.4922L217.727 51.2578Z" fill="black"/>
<path d="M235.461 57H224.25V0.984375H235.461V23.4062H257.844V0.984375H269.055V57H257.844V34.6172H235.461V57Z" fill="black"/>
<path d="M316.555 57H305.344V12.1953H299.758V0.984375H316.555V57Z" fill="black"/>
<path d="M368.664 36.4531C368.664 39.474 368.117 42.3255 367.023 45.0078C365.956 47.6901 364.471 50.0469 362.57 52.0781C360.669 54.0833 358.404 55.6719 355.773 56.8438C353.169 58.0156 350.344 58.6016 347.297 58.6016C344.25 58.6016 341.372 58.0156 338.664 56.8438C335.982 55.6719 333.638 54.0833 331.633 52.0781C329.628 50.0469 328.039 47.6901 326.867 45.0078C325.721 42.3255 325.148 39.474 325.148 36.4531C325.148 32.8594 325.5 29.3568 326.203 25.9453C326.906 22.5078 327.935 19.2656 329.289 16.2188C330.643 13.1458 332.297 10.3203 334.25 7.74219C336.203 5.16406 338.417 2.91146 340.891 0.984375H356.008C354.445 2 352.922 3.13281 351.438 4.38281C349.953 5.63281 348.534 6.97396 347.18 8.40625C345.852 9.83854 344.615 11.349 343.469 12.9375C342.323 14.526 341.307 16.1797 340.422 17.8984C341.542 17.1432 342.753 16.5052 344.055 15.9844C345.383 15.4375 346.737 15.1641 348.117 15.1641C351.268 15.1641 354.107 15.6979 356.633 16.7656C359.185 17.8073 361.346 19.2786 363.117 21.1797C364.888 23.0547 366.255 25.2943 367.219 27.8984C368.182 30.5026 368.664 33.3542 368.664 36.4531ZM357.453 36.4531C357.453 34.9688 357.206 33.5755 356.711 32.2734C356.242 30.9453 355.565 29.7865 354.68 28.7969C353.794 27.7812 352.727 26.987 351.477 26.4141C350.227 25.8411 348.833 25.5547 347.297 25.5547C345.76 25.5547 344.367 25.8411 343.117 26.4141C341.867 26.987 340.799 27.7812 339.914 28.7969C339.055 29.7865 338.391 30.9453 337.922 32.2734C337.453 33.5755 337.219 34.9688 337.219 36.4531C337.219 37.8854 337.453 39.2656 337.922 40.5938C338.417 41.8958 339.107 43.0547 339.992 44.0703C340.878 45.0859 341.932 45.8932 343.156 46.4922C344.406 47.0911 345.786 47.3906 347.297 47.3906C348.833 47.3906 350.227 47.1042 351.477 46.5312C352.727 45.9583 353.794 45.1771 354.68 44.1875C355.565 43.1719 356.242 42 356.711 40.6719C357.206 39.3438 357.453 37.9375 357.453 36.4531Z" fill="black"/>
<path d="M397.141 57H385.969V12.1953H369.133V0.984375H413.938V12.1953H397.141V57Z" fill="black"/>
<path d="M431.086 57H419.875V0.984375H431.086V23.4062H453.469V0.984375H464.68V57H453.469V34.6172H431.086V57Z" fill="black"/>
</svg>
