<?xml version="1.0" encoding="utf-8"?>
<!-- Generator: Adobe Illustrator 28.3.0, SVG Export Plug-In . SVG Version: 6.00 Build 0)  -->
<svg version="1.1" id="Layer_1" xmlns="http://www.w3.org/2000/svg" xmlns:xlink="http://www.w3.org/1999/xlink" x="0px" y="0px"
	 viewBox="0 0 500 500" style="enable-background:new 0 0 500 500;" xml:space="preserve">
<path d="M227.7,483.8c-41.8-1.5-84.8-16.3-120.9-48.7c-19.3-17.4-33.2-38.9-44-62.4c-4.8-10.4-8.6-21.4-13-32c-1.3-3.2-3-6.5-5.2-9
	c-21.9-24.3-34.2-52.9-38.2-85.1C2.2,212.8,8,180.4,24,150.3c32.7-61.5,83.9-99,151.6-114.3c12.7-2.9,25.6-5.8,38.5-7.1
	c20.2-2.1,40.5-2.9,60.8-4.2c11.1-0.7,22.1-1.5,33.2-1.9c28.9-1.1,53.6,8.6,73.5,29.8c1.5,1.6,2.8,3.2,4.1,4.9
	c11,13.2,22.1,26.3,32.8,39.8c7.9,9.9,15.4,20,22.8,30.3c9.5,13.3,16.5,27.9,21.1,43.6c0.8,2.7,2.1,5.3,3.6,7.6
	c12.6,19,21.6,39.3,25.2,61.9c5.1,32.1-1.4,61.9-17.8,89.8c-8.2,14-19,25.8-30,37.6c-8.3,8.8-16.1,18.6-22,29.1
	c-10.4,18.5-24.9,32.3-43.1,42.6c-21.7,12.4-45.2,19.8-69.6,24.8c-1.5,0.3-3.1,0.7-4.4,1.4C282.6,478.8,258.9,483.7,227.7,483.8z
	 M41.7,318.6c-0.4-1-0.8-2-1.1-3c-6.6-18.7-10.7-37.8-10.4-57.7c0.3-16.9,0.5-33.9,2.1-50.8c1.6-17.5,3.8-35.1,7.5-52.3
	c5.6-25.3,18.5-46.6,41.2-60.4c11.4-7,22.7-13.8,32.2-23.4c5.5-5.5,12.3-9.8,19.4-15.4c-2.4,1.1-3.8,1.7-5.2,2.4
	C99,71.7,74.4,90.4,54.1,114.5c-33.3,39.6-49.5,84.6-41.7,136.7C16.1,276.1,25.3,298.8,41.7,318.6z M451.5,350.6
	c42.5-46.4,47.1-108.7,15.5-159.5c0.3,3.2,0.5,5.7,0.7,8.1c1.3,16.7,2.9,33.4,3.8,50.2C473.2,284.7,466.8,318.5,451.5,350.6z
	 M85.1,361.6c0.5-0.5,1-0.9,1.5-1.4c-13.3-24.5-27.3-48.7-33.1-76.4c-5.8-27.3-8.5-54.9-8-82.9c-4.1,11.3-8.4,22.8-8.3,34.9
	c0.2,30.2,4.9,59.8,13.2,88.8c1.1,3.8,2.4,8.1,5.1,10.6C65.1,344.4,75.2,352.8,85.1,361.6z M61,225.7c6.1-48.5,31.2-86.7,65.5-120.1
	C82.8,128.1,55.1,164.3,61,225.7z M381.4,106.5c0.2-0.4,0.5-0.8,0.7-1.3c-26.1-27.2-53.4-52.6-93.6-57c0.2,0.6,0.7,0.9,1.1,1.2
	c11,6.8,22.1,13.3,32.8,20.6c6.4,4.4,11.4,11,18.1,14.9C353.7,92.8,367.7,99.4,381.4,106.5z M203.2,37.7c-35,0.9-63.6,18-90.4,40.6
	c1,0.2,1.3,0.4,1.5,0.3c17.9-6.1,35.7-12.2,53.5-18.3c0.4-0.1,0.8-0.4,1.1-0.6C180.4,52.3,192,44.8,203.2,37.7z M178.4,461.2
	c-44.8-17.1-80.1-46-107.6-84.8c11.4,23.1,26.5,43.2,45.8,60.4C134.4,452.6,155.5,459,178.4,461.2z M275.5,33.9
	c43.5,5.2,82.7,21.1,118.8,46.6c-2.4-6.8-6.9-10.6-11.6-14.3c-23.9-18.6-51-29.6-80.7-34.3C293.1,30.6,284.2,29.4,275.5,33.9z
	 M87.7,96.9c-10.6,5.8-19.5,13.4-26.5,23.1c-12.3,17-17.5,36.5-20.6,56.8c-0.8,5-1.3,10.1-2,15.1c1.8-2.4,2.7-4.9,3.8-7.4
	c3.8-7.8,8.6-15.3,11.3-23.4C61.4,137.7,72.8,116.4,87.7,96.9z M338.5,421.8c-0.2-0.3-0.4-0.7-0.6-1c-2.1,0.8-4.2,1.4-6.2,2.4
	c-11.8,6.1-24.2,10.6-37.2,13.3c-1.5,0.3-3.3,0.5-4.4,1.4c-6,4.6-11.8,9.4-18.7,14.9c10.4-0.6,20-1,29.6-1.9
	c4.2-0.4,8.4-1.4,12.4-2.8C326.4,443.7,332.2,432.5,338.5,421.8z M147.2,432.8c-0.3-0.3-0.5-0.7-0.8-0.9
	c-20.4-15.6-37.4-34.5-51.1-56.2c-0.8-1.2-1.4-2.7-2.4-3.4c-9.4-6.8-18.8-13.4-29-20.6C85.2,386.1,111.9,413.9,147.2,432.8z
	 M234.7,435.7c-7.5-3.3-14.2-6.3-21-9.1c-2.4-1-5.1-1.9-7.7-2.2c-19.4-2.3-37.9-7.3-54.4-18.3c-1.4-0.9-2.8-1.6-5.2-2.9
	c7.1,14.3,20.8,18,32,24.9C195.8,438.8,214.7,438.3,234.7,435.7z M213.4,53.8c36.6-3.8,70.7,5.9,104,19.5
	c-11-8.7-23.1-15.6-35.6-21.7c-10-4.9-20.3-7.1-31.3-6C237.7,46.7,225.1,47.9,213.4,53.8z M419.3,387.4c-0.9,0.5-1.5,0.7-2,1.1
	c-11.5,6.2-23,12.4-34.4,18.7c-1.8,1-3.6,2.3-5.1,3.6c-7.9,6.9-15.6,14.1-23.7,20.8c-4.7,3.9-10.1,6.9-15.9,10.8
	C363.6,436.4,411.9,403.6,419.3,387.4z M170.1,466c30.4,14.9,95.3,16.2,116.4,2C247.1,473.4,208.6,472,170.1,466z M423.8,205.6
	c0,0.1-0.1,0.3-0.1,0.4c0.4,1.4,0.8,2.7,1.2,4.1c5.7,20.2,5,40.2-2.1,59.9c-0.6,1.6-1.6,3.1-1.8,4.8c-1.4,13-2.7,26-4.1,39.9
	C434.1,278.6,438.9,242.6,423.8,205.6z M352.4,70c0.3,0.3,0.5,0.7,0.8,0.9c15,11.4,27.7,25.1,39.9,39.5c5.6,6.6,13.7,11.2,20.7,16.7
	c0.4-0.4,0.9-0.8,1.3-1.2c-2.1-4.6-3.2-10-6.4-13.6C392.9,94.5,374.1,80.5,352.4,70z M89.1,119.6c0.6-0.5,1.3-0.9,1.9-1.4
	c13.8-11.8,29.2-21.2,45.8-28.6c4.7-2.1,14.7-12.1,17.1-17.4C125.4,78.6,106,97.3,89.1,119.6z M95.9,301.5c0.5-0.2,0.9-0.4,1.4-0.6
	c-9.9-27.2-12-55.6-12.6-84.3c-2.4,8-4.4,16.1-6.2,24.2c-1.9,9.2-1.6,18.1,2.7,26.9C86.6,278.7,91.1,290.2,95.9,301.5z M447.7,200.7
	c-0.6,0.1-1.2,0.2-1.8,0.3c0.8,6.8,1.3,13.6,2.4,20.3c1.2,7,3.2,13.8,4.5,20.8c1,5.6,1.4,11.3,2.1,17c1.8-4.1,3.2-8.3,4-12.5
	c0.8-4.7,2.1-9.7,1.3-14.3C458.1,221,453.3,210.6,447.7,200.7z M430.6,356.6c-0.2-0.1-0.5-0.2-0.7-0.3
	c-13.6,13.7-27.3,27.5-40.9,41.2c0.4,0.5,0.8,1,1.2,1.5c10.6-6.8,21.2-13.6,31.8-20.4c0.9-0.6,1.9-1.5,2.2-2.4
	C426.4,369.8,428.5,363.2,430.6,356.6z M460.4,309.5c-5.7,9.8-11.3,20.9-18.4,30.9c-6.3,9-5.7,19.6-9.2,29.3
	C446.6,351.3,455.2,330.5,460.4,309.5z M462.7,271.8c-3.4,10.3-10.6,18.7-12.9,29.7c-2.2,10.4-6.4,20.5-9.7,30.7
	C451.9,319.3,463.3,287.9,462.7,271.8z M129.2,384.9c-4.6-16.3-22.1-28.7-36.7-38.4C99.6,360.4,120.1,382,129.2,384.9z M405.9,306.2
	c-9.6,16.2-18.6,31.5-27,45.6c13.4-3.6,19.7-14.8,23.1-28.4c0.7-2.8,1.5-5.5,2.1-8.2C404.7,312.5,405.1,309.8,405.9,306.2z
	 M317.9,455.5c27.6-2.3,76-27.2,85.8-43.4c-0.9,0.6-1.4,0.8-1.7,1.1c-23.1,19.4-49.3,32.5-78.6,39.4
	C321.4,453.1,319.7,454.5,317.9,455.5z M410.3,367.3c10.4-13.2,18.9-26.6,25.3-41.2c0.9-2.1,0.8-4.7,1.2-7.1
	c-4.7,5.2-9.6,10-12.5,15.8C419,345,415.1,355.8,410.3,367.3z M78.5,276c0.7,19.8,10.2,35.3,21.8,49.8c0.5-0.2,0.9-0.4,1.4-0.6
	C94,308.9,86.3,292.7,78.5,276z M461,215.1c-0.2-9.6-12-44-16.7-49c0.3,2.5,0.7,4.8,0.7,7.2c0.2,9.5,2.3,18.3,8.1,26.3
	C456.4,204.1,458.3,209.6,461,215.1z M94.8,177.6c-0.5-0.3-1-0.7-1.6-1c-0.2,0.5-0.3,1.1-0.6,1.5c-10.9,16.4-18.5,34.2-21.8,53.7
	c-0.2,1.3,0.1,2.8,0.2,4.1c4.3-11.9,8.9-23.3,13.6-34.7C88,193.4,91.4,185.5,94.8,177.6z M114.7,84.9c-0.2-0.4-0.4-0.8-0.7-1.2
	c-4.6,2.4-10.1,3.8-13.5,7.3c-13.4,13.9-23.8,30-32.1,47.5c-0.4,0.8-0.7,1.5-1,2.3c0,0,0.4,0.2,0.9,0.5
	C79.7,119.2,94.8,100.1,114.7,84.9z M409.4,197.3c6.9,19,11,38.6,12.5,58.8C425.5,234.8,421.3,215.2,409.4,197.3z M384.6,142.1
	c1.6,3.1,3.4,6.2,4.8,9.4c3.9,8.9,8.7,17,16.4,23.4c3.8,3.2,6.5,7.7,9.7,11.7C407.4,170.2,397.5,155.1,384.6,142.1z M372.8,52
	c-16.2-15.5-35.5-23.4-58-23.4C335.3,33.4,354.6,41.2,372.8,52z M226.2,425.8c15.6,8.8,30.8,7.9,45.7,0
	C257,425.8,241.8,425.8,226.2,425.8z M445.3,232.7c-3.1,8.9-2.3,33,1.6,47.2C450.6,274.4,449.6,244.5,445.3,232.7z M426.4,147
	c4.6,11,2.6,24,14.1,32C438.3,167.2,440.8,154.1,426.4,147z M279.9,439.6c-13.2-2.6-22.3,5.7-33.7,9.6
	C260.5,454.2,269.9,446.5,279.9,439.6z M393.4,358.5c-0.3-0.2-0.5-0.4-0.8-0.6c-1.1,1.2-2.4,2.4-3.3,3.8
	c-8.3,11.6-18.3,21.4-30.2,29.3c-3.5,2.3-4.1,5.6-4.3,9.4C370.4,388.9,382.5,374.2,393.4,358.5z M53.9,214.1
	c-2.6,18.8-0.9,37,5.6,54.7c0.4,0,0.7-0.1,1.1-0.1C58.3,250.5,56.1,232.4,53.9,214.1z M403.1,98.6c0.3-0.3,0.7-0.6,1-0.9
	c-2.1-2.5-3.8-5.5-6.3-7.5c-14.7-11.6-30.6-21.3-47.6-29.1c-10-4.6-20.3-8.4-30.5-12.5c14.7,7.1,29.7,13.6,44.1,21.1
	C378.4,77.1,391.2,87.4,403.1,98.6z M134.1,116c11.3-7.8,21.5-14.9,32.4-22.4c-6.6,1.5-12.6,2.8-18.5,4.2c-1,0.2-2.1,1-2.7,1.9
	C141.7,104.8,138.2,109.9,134.1,116z M155.3,372c-6.3-15.2-21.4-21.8-31.8-33C132.3,351.8,142.7,363,155.3,372z M253.9,438.5
	c-12.1,1.5-24.2,2.9-36.8,4.5C232.8,448.4,240.9,447.6,253.9,438.5z M368.7,116.8c9.3,7.9,16.3,18.7,29.4,23.5
	C388.9,130.7,383.2,118.4,368.7,116.8z M109.4,385.5c7.3,11.8,32,32.6,43.9,36.3C137.7,408.9,122.9,396.6,109.4,385.5z M279.2,457.9
	c-6.8-0.3-13.8-1.9-20.4-0.8c-11.5,2.1-22.9,3.9-34.7,2.6C242.7,463.2,261,462.1,279.2,457.9z M211.2,463.8
	c-19.4-7-40-14.5-60.6-21.9C164.8,451.3,190.5,460.5,211.2,463.8z M425.2,162.1c-1.4-5.2-2.7-10.3-4.2-15.5
	c-1.8-6.6-5.1-9.7-12.7-12C415.1,143.5,416.4,154.9,425.2,162.1z M318.7,99c0.2-0.5,0.3-1,0.5-1.5c-12.1-6.7-23.2-15.8-38.1-15.4
	c8.7,4.4,17.4,8.9,26.3,13.1C311,96.9,314.9,97.8,318.7,99z M183,438.1c-0.2,0.5-0.4,1-0.6,1.6c11.1,5.8,21.7,13.2,35.6,9.3
	C206.3,445.4,194.6,441.8,183,438.1z M314.4,79.2c-25.1-11.7-51.2-19.4-79.1-20.3c3.1,0.9,6.2,1.7,9.4,2
	c19.6,1.4,38.4,6.2,56.3,14.4C305.2,77.1,309.9,77.9,314.4,79.2z M194.6,78.4c-12.7,2.6-25.1,2.9-35.9,11
	C171.5,88,183.6,86.7,194.6,78.4z M120.4,124c-0.4-0.3-0.8-0.7-1.1-1c-14.7,15-27.5,31.2-35.6,50.8c8-14.5,17.6-27.9,29.1-39.8
	C115.7,131,117.9,127.3,120.4,124z M453.6,160c-5.6-10.2-11.2-20.4-16.8-30.6c-0.4,0.2-0.7,0.4-1.1,0.6
	C438.4,141.7,442.2,152.9,453.6,160z M414.2,343.9c-5.8,3.6-5.6,3.6-8,9.4c-3.1,7.3-6.5,14.5-9.7,21.8c-0.4,0.9-0.7,1.8-1.1,2.7
	C403.9,367.7,409.3,355.9,414.2,343.9z M395.8,268.8c-2,11-3.9,21.3-5.9,31.8C397,296.7,399.9,281.5,395.8,268.8z M125.1,137.2
	c6.7-8.5,17.6-12.5,23.2-22.1C138.5,120.3,128.2,125,125.1,137.2z M187.5,392.4c8,7,17.6,9.4,27.3,11.5
	C206.5,398.5,199.1,391.1,187.5,392.4z M351.5,156c6.3,7.8,9.7,17.1,19.3,22.2C367.5,167.9,361.9,160.4,351.5,156z M113.1,204.3
	c3.5-8.1,11.5-13.5,13.5-22.6C119,187.5,111.1,192.9,113.1,204.3z M432.7,305.3c9.9-10.6,4.6-23.1,6.3-34.5
	c-0.4-0.1-0.8-0.1-1.1-0.2C436.1,282,434.4,293.4,432.7,305.3z M91.1,328.8c-4.9-10.5-9.7-21-14.6-31.5
	C75.3,310.8,84,319.4,91.1,328.8z M149.9,425.5c-0.3,0.5-0.5,1-0.8,1.5c10.7,7.9,21.7,15.1,33.9,20.3c0.2-0.3,0.4-0.7,0.6-1
	C172.4,439.4,161.1,432.5,149.9,425.5z M125.3,219.2c-0.4-0.1-0.7-0.1-1.1-0.2c-5.7,13.4-1.6,27.2-1.1,40.8
	C123.8,246.3,124.5,232.7,125.3,219.2z M358,417.4c-11.8,0.9-14,2.7-19,15.6C345.8,427.4,351.9,422.4,358,417.4z M357.2,191.9
	c-0.6,0.3-1.2,0.6-1.8,1c5,9.3,9.9,18.7,14.9,28C369.8,209.3,362.8,201,357.2,191.9z M245.2,378.2c-7.4-7.8-15.9-4.3-23.4-5.9
	C228,379.6,236.4,377.1,245.2,378.2z M382.6,359.3c-13.1,1.4-19.1,5.8-19.2,13.7C369.6,368.6,375.6,364.3,382.6,359.3z M186.7,54.3
	c6.8-3,13.5-6.4,20.4-9c6.9-2.6,14.1-4.6,21.1-6.9C212.5,38.5,199.7,46.8,186.7,54.3z M108.5,297.6c0.9-7.9-2.3-20.7-5.9-23.9
	C102.2,285.5,103.9,292.1,108.5,297.6z M409.2,163.7c5.7,10.6,11.1,20.4,16.2,30C424.9,181.7,417.9,172.7,409.2,163.7z M411.9,102.4
	c2,10,10.2,15.3,15.2,22.7C424.2,116.3,420.2,108.2,411.9,102.4z M123.3,328.4c1.8,8.8,9.4,12.7,15.2,18.2
	C136.4,338.1,128.8,334.1,123.3,328.4z M250,392.1c8.9,7.3,12.7,7.4,18.9,0C262.4,392.1,256.6,392.1,250,392.1z M327.1,407.5
	c0.1,0.2,0.1,0.5,0.2,0.7c5-1.1,9.9-2.3,14.9-3.1c4.2-0.7,6-3,6.2-7.2C341.1,401.1,334.1,404.3,327.1,407.5z M293.8,424.4
	c-7.2,0.4-11.4,5-16.8,8.9C284.9,434,290.4,431.9,293.8,424.4z M95.7,268.5c0.4,0,0.8-0.1,1.2-0.1c-1.7-10.8-3.4-21.6-4.9-30.9
	C89.8,247.1,92.2,257.9,95.7,268.5z M193.6,92.5c-0.1-0.4-0.2-0.7-0.3-1.1c-8.1-0.6-15.4,1.2-20.8,8.2
	C179.6,97.2,186.6,94.8,193.6,92.5z M248.4,372.4c6.5,5.4,13.4,5.2,21,0C262.5,372.4,256,372.4,248.4,372.4z M248.8,399.8
	c0.1-0.4,0.1-0.8,0.2-1.2c-5.7-4.1-11.5-7.9-20.1-3.8C236.2,396.7,242.5,398.3,248.8,399.8z M156.2,211.7c5.2-7.5,10.4-15,15.5-22.5
	C162.8,194.2,159.3,202.9,156.2,211.7z M238.5,79.1c-10.5-2.8-20.7-2.1-31.1,1.7C218.1,80.3,228.3,79.7,238.5,79.1z M186.1,69.4
	c8.7-2.3,17.4-4.6,26.8-7.1C202.2,60.2,194.1,64.5,186.1,69.4z M392.7,369.4c-6,7.1-11.4,13.7-17.3,20.7
	C384,386.6,388.4,381.3,392.7,369.4z M255.4,123c10.7,3.1,20.2,5.8,29.8,8.5c0.1-0.4,0.3-0.8,0.4-1.2c-8.4-2.8-16.8-5.6-25.2-8.2
	C259.2,121.8,257.7,122.5,255.4,123z M401.4,243.7c-0.6,0-1.2-0.1-1.7-0.1c0,7.7,0,15.4,0,23.1c0.6,0,1.2,0,1.7,0
	C401.4,259,401.4,251.4,401.4,243.7z M162.2,398.2c0.4-0.6,0.8-1.2,1.3-1.8c-7.9-5.3-15.9-10.7-23.8-16c-0.3,0.5-0.6,0.9-0.9,1.4
	C146.6,387.3,154.4,392.8,162.2,398.2z M118.6,157.8c5.4-6,10.1-11.3,14.8-16.7C127.2,145.1,118.8,147,118.6,157.8z M375.2,286.5
	c4.6-7.8,2.7-15.9,1.8-24c-1.2,7.3-1.6,14.7-2,22C375,285.2,375.2,285.9,375.2,286.5z M359.7,286.9c5.9-4.6,7.1-11.8,2.6-18.2
	C361.4,275.2,360.6,280.7,359.7,286.9z M435.3,183.2c0.6,6.5,1.5,12.4,5.8,17.9C441.9,194,441.5,187.8,435.3,183.2z M117.3,240.9
	c-2.7,11.5,1.8,22.2,3.9,33.1C119.9,262.9,118.6,251.9,117.3,240.9z M352.9,387.5c-0.4-0.5-0.8-1-1.2-1.5c-6,3.7-12,7.5-18,11.2
	c0.3,0.4,0.5,0.8,0.8,1.2C340.7,394.9,348,393,352.9,387.5z M369,297.9c-3,6.3-6.1,12.6-9.1,18.8C367.9,312.8,368,305.1,369,297.9z
	 M402.1,176.1c-0.4,0.2-0.7,0.5-1.1,0.7c1.6,8.7,9.9,12.7,13.6,19.9c0.4-0.3,0.8-0.6,1.2-0.9C411.3,189.3,406.7,182.7,402.1,176.1z
	 M297.3,430.6c6-1.9,11.4-3.6,16.7-5.3c-0.1-0.4-0.2-0.7-0.4-1.1C308.2,425.5,301,421.6,297.3,430.6z M267.9,119
	c10.9,5.2,21.9,10.4,33,15.7C290.4,128.2,280,121.5,267.9,119z M189.4,353.6c-4.5-2.2-9-4.4-14.2-6.9
	C179.1,354.2,183.2,356.4,189.4,353.6z M409.8,148.7c-4.8-7.9-6.7-17.6-15.7-22.4C399.3,133.8,404.5,141.2,409.8,148.7z M218.4,124
	c0.1,0.4,0.3,0.8,0.4,1.3c6.4-1.6,12.8-3.2,19.3-4.8c-0.1-0.4-0.2-0.8-0.3-1.1C230.5,117.7,224.7,121.9,218.4,124z M139,149
	c4.6-4,11.1-5.7,13.9-11.7C148,140.8,141.1,142.1,139,149z M223,362.9c-5.1-1.2-10.2-2.4-15.7-3.7
	C211.8,364.8,216.7,366.2,223,362.9z M107.2,251.9c0.5,0,1.1,0,1.6,0c0-5.9,0-11.8,0-17.6c-0.5,0-1.1,0-1.6,0
	C107.2,240.1,107.2,246,107.2,251.9z M322.2,315.2c7.2-1.1,9.1-5.1,6.2-11.6C326.5,307.3,324.4,311.1,322.2,315.2z M338.2,228.2
	c0.5-0.2,1-0.4,1.5-0.6c0.6-6.6-4.2-11-6.9-16.2c-0.3,0.1-0.7,0.3-1,0.4C333.9,217.2,336,222.7,338.2,228.2z M299.3,196.3
	c6.3,7.9,11.9,14.9,17.5,21.9C312.8,209.8,307.5,202.6,299.3,196.3z M291.9,184.2c5,4.1,10,8.1,15,12.2c0.2-0.3,0.5-0.6,0.7-0.9
	C303.1,190.7,299.1,185.3,291.9,184.2z M267.5,399.2c8.5,0.4,10.2-0.5,12.9-6.4C274.5,391.6,272.3,397.1,267.5,399.2z M199.5,110.8
	c0.2,0.6,0.3,1.2,0.5,1.8c5.9-1.6,11.8-3.3,17.7-4.9c-0.2-0.7-0.4-1.4-0.6-2.1C211.2,107.3,205.4,109,199.5,110.8z M122.6,388.1
	c-0.3,0.3-0.5,0.6-0.8,0.9c5.4,4.6,10.9,9.2,16.3,13.8C135.5,394.7,127.6,393.2,122.6,388.1z M251.2,101.1c0-0.5-0.1-0.9-0.1-1.4
	c-7.4,0.8-14.8,1.6-22.3,2.4c0,0.5,0.1,0.9,0.1,1.4C236.4,102.7,243.8,101.9,251.2,101.1z M169,146.4c-0.4-0.4-0.9-0.9-1.3-1.3
	c-4.8,4.5-9.6,9.1-14.4,13.6c0.6,0.6,1.2,1.2,1.8,1.8C161.1,157.2,163.7,150.4,169,146.4z M347,100.4c-3.9-6.9-10.1-8.7-16.7-9.9
	C335.8,93.7,341.1,96.9,347,100.4z M315.4,130.2c-0.3,0.4-0.6,0.8-0.9,1.2c5.3,3.5,10.7,6.9,16,10.4c0.3-0.5,0.7-1.1,1-1.6
	C326.2,136.9,320.8,133.6,315.4,130.2z M192,131.4c0.2,0.3,0.3,0.6,0.5,0.9c7.7-3.9,15.4-7.7,23.1-11.6c-0.2-0.4-0.4-0.8-0.6-1.2
	C207.3,123.5,199.7,127.4,192,131.4z M253.8,135.4c-0.1,0.7-0.1,1.3-0.2,2c5.7,0.5,11.4,1.1,17,1.6c0.1-0.6,0.1-1.2,0.2-1.8
	C265.1,136.5,259.5,135.9,253.8,135.4z M96.2,163.1c0.4,0.3,0.8,0.6,1.2,0.9c3.9-5.3,7.9-10.6,11.8-15.9c-0.4-0.3-0.8-0.6-1.2-0.9
	C104,152.5,100.1,157.8,96.2,163.1z M93.7,209.5c0.5,0.2,0.9,0.3,1.4,0.5c1.6-6.1,3.3-12.2,4.9-18.3c-0.5-0.1-1-0.3-1.5-0.4
	C96.9,197.4,95.3,203.4,93.7,209.5z M347.1,262c-0.7,0-1.4,0-2,0c0.4,5.8,0.8,11.5,1.2,17.3c0.6,0,1.1-0.1,1.7-0.1
	C347.6,273.4,347.4,267.7,347.1,262z M372.4,152c0.4-0.2,0.9-0.4,1.3-0.6c-3.8-5.3-7.6-10.5-11.5-15.8c-0.4,0.3-0.7,0.5-1.1,0.8
	C364.9,141.6,368.7,146.8,372.4,152z M344.9,336.5c0.3,0.3,0.6,0.5,0.9,0.8c4-4.4,8.1-8.9,12.1-13.3c-0.5-0.4-0.9-0.8-1.4-1.2
	C352.6,327.3,348.7,331.9,344.9,336.5z M317,115c5.3,2.7,9.5,4.8,13.7,7C327,118.8,324.3,114,317,115z M294.8,167.3
	c-0.3,0.5-0.7,1.1-1,1.6c3.9,2.3,7.7,4.6,11.6,6.9c0.3-0.5,0.6-1,0.9-1.5C302.4,172,298.6,169.7,294.8,167.3z M174.5,409.4
	c0.1-0.3,0.3-0.6,0.4-0.9c-5.9-2.4-11.7-4.8-17.6-7.2c-0.2,0.4-0.3,0.8-0.5,1.2C162.8,404.8,168.6,407.1,174.5,409.4z M143.7,135.8
	c0.2,0.4,0.5,0.8,0.8,1.2c4.9-2.9,9.9-5.7,14.8-8.6c-0.2-0.3-0.4-0.7-0.6-1C153.7,130.2,148.7,133,143.7,135.8z M144.1,231.6
	c0.4,0.1,0.7,0.1,1.1,0.2c1.9-6.5,3.7-13,5.6-19.5c-0.3-0.1-0.7-0.2-1-0.3C147.9,218.5,146,225,144.1,231.6z M247,154.9
	c-0.1-0.3-0.2-0.6-0.3-0.9c-6.9,2.5-13.8,5-20.6,7.4c0.1,0.3,0.2,0.6,0.3,0.9C233.2,159.8,240.1,157.4,247,154.9z M352.1,214.9
	c-0.4,0.2-0.9,0.4-1.3,0.6c1.8,4.2,3.6,8.4,5.4,12.6c0.5-0.2,1-0.5,1.6-0.7C355.9,223.2,354,219.1,352.1,214.9z M341.9,291
	c0.7,0,1.4,0,2-0.1c-0.4-4.2-0.8-8.4-1.2-12.6c-0.3,0-0.6,0.1-0.8,0.1C341.9,282.7,341.9,286.9,341.9,291z M208.8,369.1
	c-3.5-1-6.3-1.7-9.4-2.6C201.1,372.1,202.1,372.4,208.8,369.1z M179.4,376.8c0.2-0.4,0.3-0.8,0.5-1.3c-2.9-1.3-5.8-2.7-9.5-4.4
	C172.6,376,175.2,377.9,179.4,376.8z M283.9,397.3c4-1.4,7.2-2.5,10.5-3.7C290.5,392.8,286.2,391,283.9,397.3z M250.6,164.4
	c0,0.6-0.1,1.3-0.1,1.9c4.3,0.3,8.5,0.6,12.8,0.8c0-0.6,0.1-1.1,0.1-1.7C259.1,165.1,254.9,164.8,250.6,164.4z M122.8,214
	c4.4-4.6,4.7-5.7,2.8-12.5C124.6,206.1,123.8,209.6,122.8,214z M250,157.4c-0.1,0.3-0.2,0.7-0.3,1c5.1,0,10.3,0,15.4,0
	c0-0.3,0-0.7,0-1C260.1,157.4,255.1,157.4,250,157.4z M112.4,225c0.5,0.1,1.1,0.3,1.6,0.4c1.1-4.5,2.1-9.1,3.2-13.6
	c-0.4-0.1-0.8-0.2-1.3-0.3C114.8,216,113.6,220.5,112.4,225z M215.1,386.4c0,0.6,0,1.1-0.1,1.7c3.9,0,7.7,0,11.6,0
	c0-0.2,0.1-0.5,0.1-0.7C222.8,387,218.9,386.7,215.1,386.4z M320,307.2c-0.3-0.2-0.6-0.5-0.8-0.7c-1.6,3.3-7.3,4.3-5.4,10.5
	C316.1,313.4,318.1,310.3,320,307.2z M175.9,272.3c-0.4,0.1-0.8,0.1-1.2,0.2c0.9,4.3,1.7,8.6,2.6,12.9c0.5-0.1,1-0.2,1.6-0.3
	C177.8,280.8,176.9,276.6,175.9,272.3z M62.2,290.9c-0.4,0.1-0.8,0.2-1.2,0.4c1.4,4.3,2.8,8.7,4.2,13c0.4-0.1,0.8-0.2,1.1-0.4
	C64.9,299.6,63.5,295.2,62.2,290.9z M150.9,246.7c0.6,0.1,1.2,0.2,1.8,0.3c0.5-3.9,0.9-7.9,1.4-11.8c-0.3-0.1-0.7-0.1-1-0.2
	C152.3,238.9,151.6,242.8,150.9,246.7z M426.8,137.3c0.5-0.3,0.9-0.6,1.4-0.9c-2.2-3-4.4-6-6.5-8.9c-0.4,0.3-0.8,0.6-1.3,0.9
	C422.5,131.4,424.7,134.4,426.8,137.3z M116,305.2c-0.6,0.2-1.1,0.3-1.7,0.5c1.2,2.7,2.3,5.4,3.5,8.1c0.5-0.2,1-0.4,1.6-0.6
	C118.2,310.5,117.1,307.8,116,305.2z M141.7,182.6c0.4,0.2,0.8,0.4,1.2,0.6c1.8-3.3,3.6-6.7,5.4-10c-0.5-0.3-1-0.5-1.5-0.8
	C145.1,175.8,143.4,179.2,141.7,182.6z M135.8,308.8c0.4-0.1,0.7-0.3,1.1-0.4c-1.4-4.1-2.8-8.3-4.2-12.4c-0.5,0.2-0.9,0.3-1.4,0.5
	C132.9,300.6,134.3,304.7,135.8,308.8z M306.1,379.3c8.8-0.8,11.1-1.8,11.6-4.8C314.1,376,310.6,377.5,306.1,379.3z M140.4,272.8
	c-0.5,0-1,0.1-1.5,0.1c0.3,3.1,0.6,6.1,0.9,9.2c0.5-0.1,1.1-0.1,1.6-0.2C141,278.9,140.7,275.9,140.4,272.8z M365,109.8
	c0.3-0.5,0.7-0.9,1-1.4c-2.9-2.1-5.8-4.2-8.7-6.3c-0.3,0.4-0.5,0.7-0.8,1.1C359.4,105.5,362.2,107.6,365,109.8z M195.2,345.3
	c-0.3,0.5-0.6,1.1-1,1.6c2.9,1.6,5.8,3.3,8.8,4.9c0.2-0.4,0.4-0.7,0.7-1.1C200.8,348.9,198,347.1,195.2,345.3z M101.4,335.4
	c-0.4,0.2-0.7,0.5-1.1,0.7c2.2,3.4,4.5,6.7,6.7,10.1c0.3-0.2,0.7-0.4,1-0.7C105.8,342.2,103.6,338.8,101.4,335.4z M240.2,140.1
	c0-0.3,0.1-0.5,0.1-0.8c-3.7-0.3-7.3-0.6-11-0.9c0,0.6-0.1,1.1-0.1,1.7C232.8,140.1,236.5,140.1,240.2,140.1z M280.6,137.7
	c-0.2,0.4-0.3,0.9-0.5,1.3c3.5,0.9,7,1.9,10.6,2.8c0.1-0.5,0.2-0.9,0.3-1.4C287.5,139.5,284,138.6,280.6,137.7z M316.5,281.2
	c0.5,0.1,0.9,0.2,1.4,0.3c0.7-3.6,1.3-7.2,2-10.7c-0.4-0.1-0.8-0.2-1.2-0.2C318,274,317.2,277.6,316.5,281.2z M158.9,195.7
	c-0.4-0.2-0.8-0.4-1.2-0.6c-1.6,3-3.1,6.1-4.7,9.1c0.4,0.2,0.8,0.4,1.2,0.6C155.7,201.7,157.3,198.7,158.9,195.7z M338.5,155.7
	c0.3-0.3,0.6-0.6,0.8-1c-3.3-2.6-6.6-5.3-9.9-7.9c-0.3,0.3-0.5,0.7-0.8,1C332,150.4,335.2,153,338.5,155.7z M158.8,340.8
	c1.7,1.9,4,4.5,6.2,7c0.4-0.3,0.7-0.7,1.1-1C163.4,344.6,160.7,342.4,158.8,340.8z M170,180.3c-0.3-0.2-0.6-0.5-0.9-0.7
	c-2.7,3.1-5.3,6.1-8,9.2c0.4,0.3,0.7,0.6,1.1,1C164.9,186.6,167.5,183.4,170,180.3z M223.9,92.6c0-0.3,0-0.5-0.1-0.8
	c-4.1,0-8.2,0-12.3,0c0,0.3,0,0.5,0,0.8C215.7,92.6,219.8,92.6,223.9,92.6z M310.6,328c0.6,0.5,1.2,1,1.8,1.5
	c1.4-2.1,2.8-4.2,4.1-6.3c-0.3-0.3-0.7-0.5-1-0.8C313.8,324.3,312.2,326.1,310.6,328z M184.4,123.9c-0.2-0.4-0.4-0.8-0.6-1.2
	c-3.4,1.5-6.8,3-10.2,4.5c0.2,0.4,0.3,0.7,0.5,1.1C177.6,126.8,181,125.4,184.4,123.9z M259.1,75.3c0,0.4,0.1,0.8,0.1,1.2
	c3.7,0,7.5,0,11.2,0c0-0.1,0-0.1,0-0.2C266.7,75.9,262.9,75.6,259.1,75.3z"/>
</svg>
