<svg width="490" height="529" viewBox="0 0 490 529" fill="none" xmlns="http://www.w3.org/2000/svg">
<path d="M243.276 271.284C252.685 254.987 274.884 247.899 290.469 256.897C299.18 261.926 297.992 270.991 292.285 279.182C277.68 300.142 241.754 278.209 232.928 262.575C226.241 250.732 233.735 237.103 244.456 230.752C254.837 224.602 265.818 228.918 274.091 236.296C286.088 246.997 298.325 265.827 292.22 283.246C285.65 301.994 268.327 295.825 254.455 289.723C242.393 284.417 222.38 271.93 224.091 255.371C225.426 242.453 238.469 224.912 251.638 223.123C273.704 220.126 298.729 238.457 309.556 256.141C324.259 280.157 322.131 314.353 296.68 332.395C270.884 350.682 236.529 323.304 219.747 305.851C193.815 278.884 162.336 224.43 195.955 187.61C219.52 161.8 266.282 185.257 286.274 201.276C326.822 233.767 300.288 285.688 269.142 317.548C254.427 332.601 235.332 348.423 214.421 352.19C200.609 354.678 188.86 349.304 189.863 333.385C191.547 306.649 208.173 277.526 221.851 255.129C229.706 242.264 241.471 222.697 258.246 221.471C294.466 218.824 301.88 273.68 298.835 300.312C294.71 336.388 266.999 383.494 225.89 368.064C187.973 353.832 162.402 306.806 169.64 265.147C175.976 228.679 198.613 186.717 235.886 176.18C268.097 167.073 321.474 184.021 332.482 218.493C337.757 235.009 334.102 256.523 330.509 273.285C325.275 297.703 316.18 325.368 299.952 345.113C277.024 373.009 242.071 362.052 221.279 340.484C188.865 306.862 197.321 254.988 210.595 212.253C217.538 189.898 226.744 162.502 245.139 146.407C261.818 131.814 283.027 131.256 302.021 137.404C362.626 157.02 383.045 225.729 370.005 286.836C365.425 308.298 355.645 330.333 336.297 342.127C312.215 356.806 282.511 354.067 257.184 348.913C201.044 337.488 111.986 306.347 105.105 236.719C102.601 211.39 112.929 187.931 125.767 166.222C141.182 140.155 160.506 114.706 186.225 98.6199C247.396 60.3598 323.375 80.131 351.584 145.202C362.947 171.416 363.104 201.358 359.989 229.958C356.389 263.009 348.296 296.473 332.647 326.456C309.522 370.763 263.083 409.041 212.95 395.288C154.572 379.271 120.239 306.908 115.137 249.239C110.663 198.672 118.267 92.508 188.372 88.7152C216.101 87.2151 244.568 104.233 267.309 116.942C299.552 134.962 331.384 155.685 359.032 180.412C378.191 197.547 395.875 216.935 392.718 246.121C389.251 278.186 369.133 310.768 348.354 334.474C300.835 388.687 230.199 405.314 164.002 397.937C141.821 395.465 114.779 390.386 97.4458 375.071C77.2883 357.261 83.8769 326.724 90.7869 303.099C100.206 270.894 114.182 238.764 129.891 209.08C147.829 175.184 169.403 140.85 199.723 116.821C246.141 80.036 307.285 85.2272 349.191 120.48C372.247 139.876 391.087 165.996 398.042 196.521C404.83 226.314 400.496 260.925 393.446 290.908C376.306 363.816 322.526 459.908 239.918 461.638C186.998 462.746 138.687 422.21 116.349 376.522C71.0557 283.888 76.8004 161.924 131.013 69.1618C149.974 36.7188 174.285 13.0756 211.232 7.71186C257.535 0.989735 308.619 13.8894 350 31.7927C388.124 48.2868 421.892 73.5153 443.046 110.325C469.936 157.115 464.129 210.555 448.4 262.393C426.346 335.077 383.572 410.565 315.178 447.264C248.166 483.222 170.714 467.348 106.506 440.65C48.791 416.651 7.10729 375.321 6.49999 303.099C6.15808 262.438 0.501231 213.76 23.0783 179.478C55.3031 130.546 105.915 119.36 158.672 119.194C207.489 119.041 257.38 127.354 301.689 146.569C331.668 159.57 364.383 180.246 378.712 211.96C390.42 237.874 384.55 268.949 376.673 295.733C362.526 343.839 335.396 383.131 296.213 414.132C245.596 454.179 174.907 476.052 120.359 438.134C94.7512 420.333 81.9481 391.243 76.0692 360.206C64.1903 297.493 72.9316 227.566 92.1273 165.724C104.604 125.53 123.11 83.808 156.139 56.2276C185.543 31.6738 220.756 25.4403 255.395 36.8894C298.951 51.2856 336.61 85.8017 365.535 120.35C395.669 156.34 419.233 198.138 428.848 245.743C437.258 287.381 433.823 332.163 425.937 374.325C419.859 406.816 410.957 446.046 389.485 473.029C370.661 496.684 341.107 506.445 313.493 510.319C271.73 516.179 229.393 508.451 198.027 480.242C142.182 430.016 114.515 347.263 123.395 269.988C127.138 237.417 134.895 202.38 151.01 173.016C170.247 137.962 198.536 129.79 234.476 137.727C303.401 152.95 385.887 195.998 398.88 274.28C412.62 357.056 370.144 443.614 288.034 469.021C253.719 479.639 217.7 479.356 183.933 470.633C153.811 462.851 120.966 448.552 99.0057 425.806C54.7969 380.016 105.606 302.857 130.079 257.551C150.372 219.984 174.81 170.644 212.416 147.07C251.91 122.312 299.2 133.312 337.748 147.517C381.424 163.612 428.329 189.532 457.925 226.994C491.985 270.106 489.318 328.635 473.371 380.999C462.395 417.038 443.522 453.747 414.456 478.404C384.076 504.174 345.032 517.553 307.128 522.204C245.989 529.707 188.313 500.049 147.985 456.607C108.171 413.718 79.0069 346.1 87.9279 283.995C92.091 255.013 102.998 222.317 124.47 201.114C162.782 163.284 222.476 161.963 269.387 171.761C308.821 179.998 347.24 198.629 379.401 222.451C407.773 243.466 433.723 270.646 441.996 307.163C457.328 374.847 393.61 431.844 340.086 459.963C306.028 477.856 269.798 486.633 232.431 489.382C200.283 491.746 164.443 491.573 134.067 481.058C70.1629 458.938 83.2171 367.764 101.332 315.074C115.38 274.215 132.777 231.562 154.377 193.989C175.656 156.973 203.014 122.702 244.2 108.857C276.56 97.9792 311.804 104.306 341.341 116.894C374.304 130.943 393.571 152.973 392.372 191.566C391.341 224.777 380.314 258.833 367.44 289.561C351.724 327.071 331.458 364.497 303.691 394.478C249.236 453.276 143.104 505.348 86.4501 430.542C39.231 368.194 20.542 274.336 33.0596 194.493C46.0095 111.891 100.886 16.8556 191.921 17.2748C262.76 17.601 339.425 58.1961 366.669 125.946C400.151 209.205 386.096 314.89 314.909 378.141C252.747 433.373 172.541 438.835 102.349 407.129C70.9827 392.961 41.4385 371.857 25.0413 339.997C8.60069 308.052 7.50276 269.68 13.2286 233.824C25.9328 154.269 72.1348 70.2428 152.13 45.8175C259.365 13.075 375.899 77.6252 415.926 178.776C431.831 218.969 434.699 265.2 430.004 308.861C425.101 354.46 412.347 402.22 384.558 440.325C340.571 500.641 260.262 509.368 197.974 486.52C131.79 462.242 87.401 392.166 107.169 318.024C118.499 275.527 141.376 231.515 165.717 194.965C191.306 156.541 225.747 124.197 272.836 126.441C338.099 129.552 406.687 182.972 414.654 251.426C419.026 288.989 410.324 328.692 397.698 364.645C384.049 403.51 362.754 442.244 323.808 459.291C268.223 483.623 201.832 467.273 159.404 428.926C98.2141 373.621 92.2333 282.502 139.342 210.751C185.272 140.795 262.405 88.6729 342.608 113.841C376.429 124.454 408.556 143.152 434.928 166.826C449.803 180.18 463.289 196.668 463.83 218.313C465.174 272.09 431.581 320.82 392.329 354.185C360.153 381.535 325.23 403.084 286.065 417.104C245.061 431.782 197.343 441.358 155.533 430.476C96.3916 415.082 61.5867 361.831 70.852 298.107C77.6842 251.118 100.112 205.584 124.044 164.911C148.452 123.428 178.642 79.8177 221.232 55.8552C296.13 13.7151 380.009 47.1869 417.307 117.964C458.408 195.955 444.962 287.623 393.106 361.258C375.434 386.351 352.795 408.78 323.88 418.961C295.538 428.94 265.288 425.487 238.082 417.051C173.879 397.144 128.293 346.401 116.573 277.509C104.319 205.48 142.928 135.456 212.027 109.942C302.204 76.6467 409.91 116.749 467.134 188.364C485.161 210.926 483.969 230.315 469.288 255.423C446.93 293.661 414.525 328.304 381.849 357.387C347.638 387.836 310.28 411.614 267.541 425.649C220.689 441.034 165.066 449.848 117.899 437.24C71.3525 424.797 50.1941 383.054 50.5013 335.246C50.7209 301.072 60.1431 267.889 77.0459 237.551C113.17 172.714 172.119 107.5 236.084 71.3687C273.518 50.223 310.997 46.9479 345.58 70.0332C377.355 91.2442 398.972 126.276 409.294 163.802C427.989 231.768 396.381 311.16 361.045 370.397C326.917 427.61 280.171 481.165 211.564 481.539C192.199 481.645 168.036 478.264 153.269 464.81C127.435 441.272 139.281 390.241 146.318 360.182C155.522 320.866 169.995 281.092 191.54 246.46C204.837 225.085 223.584 199.406 250.543 198.73C283.072 197.915 318.404 221.139 342.046 240.415C374.201 266.633 401.383 308.172 394.917 353.997C390.518 385.171 366.47 403.173 340.537 415.541C311.956 429.171 278.854 437.217 248.075 432.389C221.347 428.195 196.811 413.173 179.01 393.249C151.486 362.445 154.432 328.821 168.055 289.885C177.703 262.311 190.983 230.683 210.167 208.011C227.418 187.623 249.568 180.547 274.448 179.835C295.835 179.222 323.2 182.578 339.051 198.524C355.914 215.489 356.662 243.806 354.908 266.765C350.533 324.019 314.633 400.922 247.271 391.342C207.852 385.735 183.723 354.12 173.813 316.339C165.265 283.751 155.808 198.196 201.3 181.444C221.331 174.068 248.65 186.074 264.652 195.942C282.934 207.215 296.859 223.106 303.674 244.335C309.462 262.363 310.58 283.924 304.184 302.559C300.577 313.068 290.112 331.39 278.329 334.627C264.335 338.471 241.733 316.786 239.097 305.247C236.429 293.574 234.938 280.595 243.276 271.284Z" stroke="black" stroke-width="10" stroke-linecap="round"/>
</svg>
