<svg width="1324" height="1024" viewBox="0 0 1324 1024" fill="none" xmlns="http://www.w3.org/2000/svg">
<path d="M1212.87 602.072L1101.16 304.003C1099.3 298.414 1095.58 294.688 1089.99 292.825L825.623 199.679L816.314 251.841L777.217 277.922C773.494 281.648 769.77 285.374 769.77 290.962C769.77 296.551 769.77 302.14 773.494 305.866L801.42 333.81L697.162 577.854H617.106L512.847 333.81L540.774 305.866C544.497 302.14 546.359 296.551 546.359 290.962C546.359 285.374 540.774 279.785 537.05 277.922L497.953 251.841L486.783 199.679L222.413 292.825C216.828 294.688 213.104 298.414 211.242 304.003L99.5367 602.072C97.6749 605.797 97.6749 607.66 97.6749 609.523L97.6749 1205.66C97.6749 1216.84 105.122 1224.29 116.293 1224.29H265.233C276.404 1224.29 283.851 1216.84 283.851 1205.66V687.766L330.395 596.483L358.321 795.816L321.086 1166.54C319.224 1175.85 326.671 1185.17 337.842 1187.03L617.106 1224.29C626.415 1226.15 635.724 1218.7 637.585 1209.39L656.203 1086.43L674.821 1209.39C676.682 1218.7 684.129 1224.29 693.438 1224.29H695.3L974.564 1187.03C983.873 1185.17 991.32 1175.85 991.32 1166.54L954.085 795.816L982.011 596.483L1028.55 687.766V1205.66C1028.55 1216.84 1036 1224.29 1047.17 1224.29H1196.11C1207.28 1224.29 1214.73 1216.84 1214.73 1205.66V609.523C1214.73 607.66 1214.73 605.797 1212.87 602.072Z" fill="black"/>
<path d="M763.298 104.452L859.725 226.254V233.705C859.725 239.294 856.002 243.02 852.279 246.746L852.278 246.746L815.043 270.964L835.523 291.456C841.108 297.045 842.97 304.497 839.246 311.948L673.549 699.438V934.167L654.932 1060.85L636.314 936.03V699.438L472.479 311.948C468.756 304.497 470.618 297.045 476.203 291.456L496.682 270.964L459.447 246.746L459.447 246.746C455.723 243.02 452 239.294 452 233.705V226.254L532.151 104.452C535.874 100.726 541.46 97.0002 547.045 97.0002L589.77 155.462L654.932 574.621L720.093 155.462L748.404 97C753.989 97 759.575 100.726 763.298 104.452Z" fill="#729DB5"/>
<path d="M576 170.5C576 174.918 572.418 178.5 568 178.5C563.582 178.5 560 174.918 560 170.5C560 166.082 563.582 162.5 568 162.5C572.418 162.5 576 166.082 576 170.5Z" fill="#D9D9D9"/>
<circle cx="589" cy="321" r="8" fill="#D9D9D9"/>
<circle cx="614" cy="474" r="8" fill="#D9D9D9"/>
</svg>
