<?xml version="1.0" encoding="utf-8"?>
<!-- Generator: Adobe Illustrator 25.2.1, SVG Export Plug-In . SVG Version: 6.00 Build 0)  -->
<svg version="1.1" xmlns="http://www.w3.org/2000/svg" xmlns:xlink="http://www.w3.org/1999/xlink" x="0px" y="0px"
	 viewBox="0 0 64 64" style="enable-background:new 0 0 64 64;" xml:space="preserve">
<g id="Layer_1">
</g>
<g id="Layer_3">
</g>
<g id="Layer_4">
</g>
<g id="Layer_5">
</g>
<g id="Layer_6">
</g>
<g id="Layer_7">
</g>
<g id="Layer_8">
</g>
<g id="Layer_9">
</g>
<g id="Layer_10">
</g>
<g id="Layer_11">
</g>
<g id="Layer_12">
</g>
<g id="Layer_13">
</g>
<g id="Layer_14">
</g>
<g id="Layer_15">
</g>
<g id="Layer_16">
</g>
<g id="Layer_17">
</g>
<g id="Layer_18">
</g>
<g id="Layer_19">
</g>
<g id="Layer_20">
</g>
<g id="Layer_21">
	<g>
		<path d="M61.9,28.6l-6-16c-0.1-0.3-0.3-0.5-0.6-0.6L41.1,7l-3.3-4.6C37.6,2.2,37.3,2,37,2H27c-0.3,0-0.6,0.2-0.8,0.4L22.9,7
			l-14.2,5c-0.3,0.1-0.5,0.3-0.6,0.6l-6,16C2,28.8,2,28.9,2,29v32c0,0.6,0.4,1,1,1h8c0.6,0,1-0.4,1-1V33.2l2.5-4.9L16,39l-2,19.9
			c-0.1,0.5,0.3,1,0.9,1.1l15,2c0.5,0.1,1-0.3,1.1-0.8l1-6.6l1,6.6c0.1,0.5,0.5,0.8,1,0.8c0,0,0.1,0,0.1,0l15-2
			c0.5-0.1,0.9-0.6,0.9-1.1L48,39l1.5-10.7l2.5,4.9V61c0,0.6,0.4,1,1,1h8c0.6,0,1-0.4,1-1V29C62,28.9,62,28.8,61.9,28.6z M38.3,12.7
			l1.5,1.5l-5.6,13.1l3.4-21.7l3,4.2l-2.1,1.4c-0.2,0.2-0.4,0.4-0.4,0.7S38.1,12.5,38.3,12.7z M25.6,11.2l-2.1-1.4l3-4.2l3.4,21.7
			l-5.6-13.1l1.5-1.5c0.2-0.2,0.3-0.5,0.3-0.8S25.8,11.3,25.6,11.2z M35.5,6h-7l-0.3-2h7.7L35.5,6z M35.2,8L32,28.5L28.8,8H35.2z
			 M29.2,59.9l-13.1-1.7l1.9-19c0-0.1,0-0.2,0-0.2l-2-14c0,0,0,0,0-0.1l0,0l-2-9l-2,0.4l1.9,8.7l-3.8,7.7C10,32.7,10,32.8,10,33v27
			H4V29.2l5.8-15.4l11.3-4c0,0.1,0,0.2,0,0.4c0,0.3,0.2,0.5,0.4,0.7l2,1.3l-1.1,1.1c-0.3,0.3-0.4,0.7-0.2,1.1L31,35.2v12.7
			L29.2,59.9z M60,60h-6V33c0-0.2,0-0.3-0.1-0.4l-3.8-7.7l1.9-8.7l-2-0.4l-2,9l0,0c0,0,0,0,0,0.1l-2,14c0,0.1,0,0.2,0,0.2l1.9,19
			l-13.1,1.7l-1.8-12V35.2l8.9-20.8c0.2-0.4,0.1-0.8-0.2-1.1l-1.1-1.1l2-1.3c0.2-0.2,0.4-0.4,0.4-0.7c0-0.1,0-0.2,0-0.4l11.3,4
			L60,29.2V60z"/>
		<rect x="34" y="38" width="2" height="2"/>
		<rect x="34" y="44" width="2" height="2"/>
		<rect x="57" y="56" width="2" height="2"/>
		<rect x="5" y="56" width="2" height="2"/>
	</g>
</g>
<g id="Layer_22">
</g>
<g id="Layer_23">
</g>
<g id="Layer_24">
</g>
<g id="Layer_25">
</g>
<g id="Layer_26">
</g>
<g id="Layer_27">
</g>
<g id="Layer_28">
</g>
<g id="Layer_29">
</g>
<g id="Layer_30">
</g>
<g id="Layer_31">
</g>
<g id="Layer_32">
</g>
</svg>
