<?xml version="1.0" encoding="utf-8"?>
<!-- Generator: Adobe Illustrator 28.3.0, SVG Export Plug-In . SVG Version: 6.00 Build 0)  -->
<svg version="1.1" id="Layer_1" xmlns="http://www.w3.org/2000/svg" xmlns:xlink="http://www.w3.org/1999/xlink" x="0px" y="0px"
	 viewBox="0 0 437 118" style="enable-background:new 0 0 437 118;" xml:space="preserve">
<path d="M212.3,72c0-14.3,0-28.5,0-42.7c-0.2-0.1-0.3-0.1-0.5-0.2c-6.9,9.3-13.8,18.7-20.9,28.3c-7-9.5-13.8-18.8-20.9-28.4
	c0,14.6,0,28.7,0,43c-5.8,0-11.4,0-17.1,0c0-22.8,0-45.5,0-68.6c1.4,0,2.7,0,4.1,0c4.1,0,8.2,0.1,12.4,0c1.4,0,2.3,0.5,3.1,1.7
	c6.1,8.9,12.3,17.8,18.6,26.8c0.5-0.6,0.9-1.1,1.3-1.7c5.9-8.5,11.7-16.9,17.5-25.4c0.8-1.1,1.6-1.6,3-1.5c5.5,0.1,11,0,16.7,0
	c0,23,0,45.7,0,68.6C223.9,72,218.2,72,212.3,72z"/>
<path d="M286.3,57.4c-7-9.6-13.8-18.8-20.9-28.4c0,14.6,0,28.7,0,43c-5.8,0-11.4,0-17,0c0-22.8,0-45.5,0-68.4
	c0.6-0.1,1.2-0.2,1.9-0.2c4.9,0,9.7,0,14.6,0c1.4,0,2.3,0.5,3.1,1.7c5.9,8.7,11.9,17.3,17.9,26c0.2,0.3,0.4,0.5,0.7,0.9
	c2.8-4,5.5-7.9,8.1-11.7c3.5-5.1,7-10.1,10.5-15.3c0.8-1.2,1.7-1.7,3.2-1.7c5.5,0.1,10.9,0,16.5,0c0,23,0,45.7,0,68.6
	c-5.6,0-11.3,0-17.2,0c0-14.3,0-28.5,0-42.6c-0.2-0.1-0.3-0.1-0.5-0.2C300.3,38.5,293.4,47.8,286.3,57.4z"/>
<path d="M6,54.2c4.5,1.7,8.7,3.4,12.9,4.8c5.2,1.7,10.5,2.4,16,1.3c1.6-0.3,3.2-0.9,4.6-1.6c3.8-2.2,4.1-6.3,0.7-9
	c-1.5-1.2-3.3-2.1-5-2.8c-5.2-2-10.6-3.6-15.7-5.8c-3.3-1.4-6.7-3.2-9.3-5.5c-10-9-7.8-23.9,4.2-30.4c5.5-3,11.5-3.9,17.7-3.9
	c8.1,0,15.7,2,23.1,5c0.4,0.2,1.1,0.7,1.1,1c0.1,4.6,0,9.2,0,14.1c-1.1-0.5-1.9-0.8-2.7-1.2c-5.5-2.7-11.2-4.8-17.2-5.4
	c-3.3-0.3-6.7,0.2-10.1,0.5c-1.2,0.1-2.4,0.8-3.4,1.5c-2.9,2-3.3,5.4-0.9,7.8c1.4,1.4,3.3,2.6,5.1,3.3c5.3,2.1,10.8,3.7,16,5.9
	c3,1.3,6.1,2.9,8.7,4.9c10.1,7.7,9.5,22.8-1,29.9c-5.3,3.6-11.3,5.1-17.7,5.4c-9,0.5-17.6-1.4-25.8-4.8c-0.5-0.2-1.2-0.9-1.2-1.3
	C6,63.3,6,58.8,6,54.2z"/>
<path d="M119.7,3.5c5.1,0,9.9,0,14.8,0c0,0.6,0.1,1,0.1,1.5c0,12.7,0,25.4-0.1,38.1c0,5-0.8,9.8-3,14.4c-3.5,7.4-9.4,11.7-17.2,13.5
	c-6.2,1.4-12.5,1.4-18.8,0c-10.9-2.5-17.8-10-19.5-21.3c-0.6-4-0.6-8.1-0.6-12.1c-0.1-10.8,0-21.7,0-32.5c0-0.5,0.1-1.1,0.1-1.7
	c4.9,0,9.8,0,14.9,0c0,0.8,0,1.5,0,2.2c0.1,12.5,0.1,24.9,0.2,37.4c0,2,0.4,4.1,1,6c1.6,5.4,6.3,8.9,11.9,9.1c2,0.1,4.1,0.1,5.9-0.5
	c6.5-2.1,9.7-6.3,9.8-13.2c0.2-11.2,0.2-22.4,0.3-33.6C119.7,8.4,119.7,6,119.7,3.5z"/>
<path d="M396.9,18.1c-7.1,0-13.8,0-20.8,0c0-4.7,0-9.3,0-14c18.8,0,37.7,0,56.7,0c0,4.5,0,9.1,0,13.9c-6.8,0-13.7,0-20.7,0
	c0,18.2,0,36.2,0,54.3c-5.2,0-10.1,0-15.2,0C396.9,54.2,396.9,36.3,396.9,18.1z"/>
<path d="M343.7,3.6c5.1,0,10,0,15,0c0,22.8,0,45.5,0,68.3c-5,0-9.9,0-15,0C343.7,49.1,343.7,26.5,343.7,3.6z"/>
<path d="M312.1,114.8c-1.4,0-2.5,0-3.9,0c0-7.5,0-14.9,0-22.3c-0.1-0.1-0.3-0.1-0.4-0.2c-3.4,4.9-6.8,9.7-10.4,15
	c-3.6-5.2-7-10-10.6-15.3c0,7.8,0,15.2,0,22.7c-1.5,0-2.7,0-4,0c0-10.1,0-20.1,0-30.1c2.5-0.5,4.3-0.1,5.8,2.3
	c2.5,4.2,5.4,8.1,8.1,12.1c0.2,0.3,0.5,0.5,0.9,1c1.6-2.3,3.1-4.6,4.6-6.8c1.4-2.1,3-4,4.1-6.2c1.3-2.6,3.2-3.1,5.9-2.5
	C312.1,94.7,312.1,104.7,312.1,114.8z"/>
<path d="M51.6,84.7c2.5-0.6,4.2,0.1,5.8,2.2c5,6.6,10.3,13.1,15.4,19.6c0.1,0.1,0.3,0.2,0.7,0.6c0-7.6,0-15,0-22.5
	c1.5,0,2.7,0,4.1,0c0,10.1,0,20,0,30c-2.3,0.9-3.8,0-5.2-1.8c-5.2-6.8-10.6-13.4-15.9-20.1c-0.2-0.2-0.4-0.4-0.9-1.1
	c0,7.9,0,15.4,0,23.1c-1.5,0.1-2.6,0.1-4,0.2C51.6,104.8,51.6,94.8,51.6,84.7z"/>
<path d="M371.3,106.8c0-7.3,0-14.6,0-22.1c1.4,0,2.6,0,4,0c0,10,0,19.9,0,29.9c-2.8,0.8-3.4,0.5-5.2-1.9
	c-5.4-6.8-10.8-13.6-16.1-20.3c-0.1-0.1-0.2-0.2-0.7-0.7c0,7.9,0,15.5,0,23.2c-1.5,0-2.8,0-4.1,0c0-10.1,0-20,0-30.1
	c2.1-0.3,3.8-0.5,5.4,1.6c5,6.6,10.2,13,15.3,19.4c0.3,0.4,0.7,0.8,1.1,1.2C371.1,106.8,371.2,106.8,371.3,106.8z"/>
<path d="M248.6,84.7c2.6-0.6,4.3,0.1,5.9,2.2c5,6.6,10.2,13,15.3,19.4c0.2,0.3,0.5,0.5,1.1,1c0-7.8,0-15.2,0-22.7c1.4,0,2.6,0,3.9,0
	c0,10,0,20,0,30c-2.5,0.9-3.9-0.2-5.3-2c-5.4-6.9-10.9-13.8-16.7-21.1c0,8.1,0,15.7,0,23.4c-1.6,0-2.8,0-4.1,0
	C248.6,104.7,248.6,94.8,248.6,84.7z"/>
<path d="M146.6,114.8c-1.5,0-2.6,0-3.9,0c0-10.1,0-20.1,0-30.5c5.8,0.2,11.6,0.1,17.4,0.7c3.3,0.3,5.9,2.5,6.7,6
	c0.7,3.5,0.5,7-2.6,9.4c-1.3,1-2.9,1.6-4.6,2.5c2.8,3.7,5.8,7.6,8.8,11.6c-3.2,1-4.9,0.5-6.6-1.8c-2-2.7-4-5.4-6.1-8.1
	c-0.4-0.6-1.2-1.1-1.9-1.1c-2.3-0.1-4.6-0.1-7.1-0.1C146.6,107.2,146.6,111,146.6,114.8z M146.7,100c3.7-0.2,7.4-0.1,11.1-0.6
	c3.3-0.5,5.3-3,5.3-5.7c0-2-2-4.7-4.4-5c-3.9-0.5-7.9-0.6-12-0.8C146.7,92.1,146.7,95.9,146.7,100z"/>
<path d="M320.2,84.6c7.5,0,14.9,0,22.3,0c0,1.2,0,2.2,0,3.5c-6.1,0-12.2,0-18.3,0c0,3.3,0,6.3,0,9.6c5.4,0,10.8,0,16.3,0
	c0,1.3,0,2.4,0,3.6c-3.9,0-7.8,0-11.6,0c-4.8,0-4.8,0-4.8,4.8c0,1.6,0,3.1,0,5c1.1,0,2.1,0,3.2,0c4.3,0,8.6,0,12.9,0.1
	c3.2,0,3.2,0,2.7,3.4c-7.5,0-15,0-22.7,0C320.2,104.7,320.2,94.7,320.2,84.6z"/>
<path d="M113.6,114.7c0-10,0-19.9,0-30c7.4,0,14.8,0,22.4,0c0,1,0,2.1,0,3.4c-6.1,0-12.1,0-18.3,0c0,3.3,0,6.5,0,9.8
	c5.5,0,10.8,0,16.3,0c0,1.3,0,2.3,0,3.6c-5.5,0-10.8,0-16.3,0c0,3.3,0,6.4,0,9.8c6.2,0,12.4,0,18.7,0c0,1.3,0,2.3,0,3.5
	C128.8,114.7,121.3,114.7,113.6,114.7z"/>
<path d="M22.6,84.6c7.5,0,14.8,0,22.3,0c0,1.1,0,2.2,0,3.4c-6.1,0-12.1,0-18.3,0c0,3.3,0,6.4,0,9.7c5.4,0,10.7,0,16.2,0
	c0,1.3,0,2.3,0,3.6c-5.3,0-10.7,0-16.2,0c0,3.3,0,6.4,0,9.7c6.1,0,12.2,0,18.5,0c0,1.3,0,2.4,0,3.7c-7.5,0-15,0-22.5,0
	C22.6,104.8,22.6,94.8,22.6,84.6z"/>
<path d="M199.2,114.7c3.1-6.7,6-13.2,9-19.6c1.4-3.1,2.9-6.2,4.2-9.4c0.4-1,0.8-1.7,2-1.6c1.2,0.1,2.5-0.2,3.2,1.4
	c1.7,4,3.6,7.9,5.4,11.8c2.4,5.3,4.8,10.6,7.3,15.9c0.2,0.4,0.3,0.9,0.6,1.5c-1.4,0-2.7,0.1-3.9,0c-0.3,0-0.8-0.5-1-0.9
	c-1-2.2-2-4.4-3.1-6.7c-5,0-10.1,0-15.2,0c-0.3,0-0.8,0.4-1,0.8c-0.7,1.4-1.5,2.9-2,4.4c-0.6,2-1.8,2.9-3.9,2.5
	C200.4,114.8,200,114.8,199.2,114.7z M215.1,89.6c-2.2,4.8-4.2,9.2-6.2,13.7c4.2,0,8.2,0,12.4,0C219.2,98.7,217.2,94.3,215.1,89.6z"
	/>
<path d="M97.6,114.8c-1.4,0-2.7,0-4.1,0c0-8.9,0-17.7,0-26.7c-3.4,0-6.7,0-10.1,0c0-1.2,0-2.3,0-3.5c8,0,16,0,24.1,0
	c0,1.1,0,2.2,0,3.4c-3.3,0-6.5,0-10,0C97.6,97.1,97.6,105.9,97.6,114.8z"/>
<path d="M381.3,84.6c8.1,0,16,0,24.1,0c0,1.1,0,2.2,0,3.5c-3.3,0-6.5,0-10.1,0c0,9,0,17.9,0,26.8c-1.4,0-2.6,0-4,0
	c0-8.9,0-17.7,0-26.7c-3.4,0-6.6,0-10,0C381.3,86.9,381.3,85.8,381.3,84.6z"/>
<path d="M172,84.6c8.1,0,16,0,24.1,0c0,1.1,0,2.2,0,3.5c-3.2,0-6.4,0-9.9,0c0,9,0,17.8,0,26.7c-1.4,0-2.6,0-4,0c0-8.8,0-17.5,0-26.6
	c-3.5,0-6.8,0-10.2,0C172,86.9,172,85.8,172,84.6z"/>
<path d="M236.5,84.6c1.3,0,2.4,0,3.7,0c0,10.1,0,20.1,0,30.2c-1.2,0-2.4,0-3.7,0C236.5,104.7,236.5,94.8,236.5,84.6z"/>
</svg>
