<svg width="686" height="87" viewBox="0 0 686 87" fill="none" xmlns="http://www.w3.org/2000/svg">
<path d="M681.915 16.0771C595.745 11.5503 509.876 4.05831 423.497 4.78786C364.365 5.28728 305.41 9.38442 246.36 12.0282C193.253 14.4059 140.111 15.8173 87.013 18.3912L86.9627 18.3937C84.507 18.5118 4.25236 22.3736 4.74912 25.3937C5.00244 26.9337 7.70062 26.4742 9.24444 26.7033C24.4734 28.963 47.3229 29.7109 60.4852 29.9839C132.491 31.4772 204.225 26.6185 276.162 24.5974C342.558 22.7319 395.946 21.7493 462.103 25.566C512.069 28.4486 560.31 36.3104 609.486 44.3405C612.774 44.8774 616.106 45.8808 619.414 45.49C625.911 44.7226 606.987 41.3138 600.593 39.9352C561.313 31.4659 521.463 26.6089 481.504 22.7051C417.55 16.4571 352.619 10.6727 288.324 14.2128C284.968 14.3976 281.627 14.8392 278.267 14.9335C277.346 14.9594 274.676 14.9318 275.525 14.5722C277.894 13.5684 280.523 13.3203 283.062 12.9021C314.834 7.66826 347.793 7.50192 379.854 8.59009C470.62 11.6708 562.629 22.626 651.86 39.5802C667.54 42.5595 680.628 45.514 657.365 47.1223C615.813 49.9951 574.045 51.3894 532.452 53.5047C488.585 55.7357 444.809 57.5122 401.049 58.1528M401.049 58.1528C343.754 58.9915 286.488 57.8829 229.087 53.2975C201.947 51.1295 174.46 48.4301 147.53 44.1614C145.912 43.9049 141.654 44.462 142.709 43.2085C143.969 41.7113 146.616 42.9686 148.572 42.923C153.972 42.7973 159.375 42.7857 164.775 42.6948C256.4 41.1519 347.684 38.7944 439.318 42.5021C456.83 43.2106 478.755 46.0933 499.46 46.935M401.049 58.1528C426.297 54.2931 451.616 50.913 477.074 48.4737C482.274 47.9755 490.779 47.4148 499.46 46.935M401.049 58.1528C359.122 64.5622 317.389 72.2941 275.535 79.236C268.004 80.485 245.526 84.53 252.854 82.3968M499.46 46.935C508.939 47.3203 518.162 47.2779 526.589 46.4034C537.824 45.2375 518.232 45.8974 499.46 46.935Z" stroke="black" stroke-width="8" stroke-linecap="round"/>
</svg>
